<?xml version="1.0"?><svg xmlns="http://www.w3.org/2000/svg" viewBox="0 0 1015 571" width="421" height="237">
<defs><style>.cls-1{fill:#1323e6;}.cls-2{fill:#e40000;}</style></defs><path class="cls-1" d="M443.66,199.23,467.81,113H358.37l-31.55,112.9h81.83A36.4,36.4,0,0,0,443.66,199.23Z"/><path class="cls-1" d="M407.67,279.58l-80.85-53.73h-42L316.47,113H207L110.4,458.05H219.84l43.51-155.41,35.37,23.29-37,132.12H371.19l43.87-156.77C417.53,292.89,414.57,284,407.67,279.58Z"/><path class="cls-1" d="M807.49,458.05l43.87-156.77c2.47-8.39-.49-17.26-7.39-21.7l-80.85-53.73L698,458.05Z"/><path class="cls-1" d="M693.6,297.82,582.19,224.37,596,176.06h38l-13.8,50.28h79.37a36.37,36.37,0,0,0,35-26.62L758.68,113H521.55c-11.83,0-18.73,5.43-21.2,13.81l-35.49,126.7c-2.47,8.38,0,17.25,6.9,21.69l113.39,75.42-12.33,44.37h-38l7.89-28.1-92.68-61.62L413.59,437.83c-3.46,12.82,3.45,20.22,16.26,20.22H644.31c11.83,0,18.73-5.43,21.19-13.81L701,319.52C703.46,311.14,700.51,302.26,693.6,297.82Z"/><path class="cls-2" d="M794.67,113l-31.55,112.9h82.33a36.39,36.39,0,0,0,35-26.62L904.6,113Z"/></svg>