<?xml version="1.0" encoding="utf-8"?>
<!-- Generator: Adobe Illustrator 19.2.1, SVG Export Plug-In . SVG Version: 6.00 Build 0)  -->
<svg version="1.1" id="Layer_1" xmlns="http://www.w3.org/2000/svg" xmlns:xlink="http://www.w3.org/1999/xlink" x="0px" y="0px"
	 viewBox="0 0 512 512" width="100" height="100" style="enable-background:new 0 0 512 512;" xml:space="preserve">
<style type="text/css">
	.st0{fill:url(#SVGID_1_);}
	.st1{fill:#FFFFFF;}
	.st2{fill:url(#SVGID_2_);}
	.st3{fill:#2E58A6;}
	.st4{fill:url(#SVGID_3_);}
</style>
<g>
	
		<radialGradient id="SVGID_1_" cx="-310.5406" cy="822.7831" r="0.2582" gradientTransform="matrix(925.5722 952.2631 952.2719 -925.5637 -495952.625 1057332.875)" gradientUnits="userSpaceOnUse">
		<stop  offset="0" style="stop-color:#6096C5"/>
		<stop  offset="1" style="stop-color:#0C3285"/>
	</radialGradient>
	<path class="st0" d="M512,256C512,114.6,397.4,0,256,0C114.6,0,0,114.6,0,256c0,141.4,114.6,256,256,256
		C397.4,512,512,397.4,512,256z"/>
	<path class="st1" d="M62.3,256C62.3,149,149,62.3,256,62.3c107,0,193.7,86.7,193.7,193.7c0,107-86.7,193.7-193.7,193.7
		C149,449.7,62.3,363,62.3,256"/>
	
		<radialGradient id="SVGID_2_" cx="-310.5436" cy="822.6999" r="0.2586" gradientTransform="matrix(359.4167 -507.0013 -498.968 -353.7219 522286.3125 133877.9062)" gradientUnits="userSpaceOnUse">
		<stop  offset="0" style="stop-color:#6096C5"/>
		<stop  offset="1" style="stop-color:#0C3285"/>
	</radialGradient>
	<path class="st2" d="M346.7,415.1c2.6,0.1,4.3-0.3,5.9-1.3c0.8-0.5,20.5-15,20.5-15s-1.1,0.5-2.1,1c-3.7,1.3-11.1-1.5-21.2-7.7
		c-2.3-1.4-4.8-3.1-7.5-4.9c8-28.6,12.2-68.3,11.2-112.8c30.3-16.4,54.3-33,68.8-47.4c13.1,14,20.4,28.7,20.4,42.7
		c0.3-1,0.5-1.9,0.8-2.9c3.8-16.7-0.6-34.1-11.6-50.9c2.9-4.2,4.7-8.2,5.3-11.7c0.4-2.6,0.3-5-0.7-7.2c-0.7-1.7-1.4-3-2.2-4.9
		c-2.9-6.3-6.2-12.4-9.3-18.5c-0.1,3.8-1.9,8.1-5.3,12.9c-1.7,2.4-3.8,4.9-6.3,7.5c-19.1-18.4-45.9-35-77.9-47.5
		c-8.6-29.9-19.5-52.7-31.3-64.3c3.3-0.9,6.5-1.5,9.7-1.7c1.4-0.1,4.2-0.1,4.2-0.1c7.2,2.4,14.2,5.2,20.9,8.4
		c-2.2-2-4.6-3.8-7.2-5.1c-0.3-0.2-10.9-5.5-24.5-9c-6.6-1.7-12-2.3-17-2.8c-3.3-0.3-2.6-1.3-11.3-1.8c-2.2-0.1-4.4-0.2-6.4-0.2
		c-11.3,0-19.3,1.8-22,2.8c5.9-0.3,8.5-0.2,12.7-0.1c0,0,3.7,1.9,5.5,3.4c-19.1,7.5-40.4,24.1-61.2,47.5
		c-34.8,0.9-65.4,8.1-87.6,20.6c-2-4.7-3-8.5-2.9-11.2c1.4-1.6,2.9-3.2,4.4-4.7c-1.3,0.1-2.3,0.4-3,1.1l-18.8,25.3
		c0,0-0.5,0.6-0.7,0.9c-0.5,0.7-0.8,1.6-1,2.7c-0.2,0.9-0.2,1.9-0.1,2.9c-7.3,7.8-12.2,16.8-14.5,26.7c-0.7,3.2-1.2,6.5-1.3,9.8
		c2.7-9.8,9.2-18.3,18.7-25.4c5.8,14.3,19.7,35.6,39.4,60.5c-12.8,30.5-20.8,59.9-23.8,85.4c-9.5,0.6-17.6,0.4-24-0.7
		c-5.3-0.9-9.6-2.4-12.5-4.5c2.2,6.3,1.8,6,5.6,16.1c0.7,1.9,2.2,5.2,2.7,6.6c0.8,1.9,2.1,3.6,3.9,5.1c4.7,3.8,12.6,6,23.2,6.6
		c0.8,13.4,3.5,24.8,8.2,33.7c3.9,7.4,7.1,9.9,9.5,12c4.9,4.4,13.9,10.9,27.1,18c-0.1-0.1-0.2-0.1-0.2-0.2c0.7,0.4,1.3,0.8,2,1.1
		c2.1,1.1,4.4,1.9,6.7,2.4c-5.5-2.9-10.8-6.1-15.9-9.5c-1.2-1.4-2.4-2.9-3.5-4.5c-8-12.1-11.2-30.8-9.7-53.7
		c23.7-2.2,54-8.8,87.5-19.2c31.2,30.1,60.5,54.5,83.1,69.9c-3.9,14.1-8.6,25.2-14.2,32.4c-2.1,2.7-4.3,4.9-6.6,6.4
		c0.1,0,0.1,0,0.2,0l-0.3,0.1c0,0,0.1-0.1,0.1-0.1c-4.8,0.8-9.6,1.3-14.4,1.7c2.2,0.9,4.4,1.2,6.6,1.1c0.2,0,0.5,0,0.7-0.1l0,0
		l0.1,0c0.5-0.1,1.1-0.2,1.6-0.3l26.8-4.9c0.1,0,0.2,0,0.4-0.1l0.7-0.1l0,0c3.6-0.8,7-2.6,10.2-5.5c4.3-3.9,8.2-9.6,11.8-16.8
		C338.9,413.6,343.3,415,346.7,415.1z M399.1,206.9c-12.3,9.8-28.4,20.3-47.5,31c-1.9-21.8-4.8-42.5-8.7-61.3
		C364.6,185.4,383.6,195.8,399.1,206.9z M281.9,92.2c6.3,10.7,12.3,25.2,17.5,42.5c-4.7-1.2-9.4-2.4-14.3-3.4
		c-14.3-3.1-28.4-5.3-42.1-6.5C256.2,110.8,269.4,99.8,281.9,92.2z M130.4,163.1c-1-1.5-1.8-3-2.7-4.5c16.7-5.8,37.2-9.3,60-10.2
		c-11.2,15.3-21.9,32.4-31.6,51C145.6,185.8,136.9,173.5,130.4,163.1z M143.9,314.6c3.7-17.7,9.4-36.9,17.1-56.8
		c11.9,13.9,25.2,28.4,39.4,43.1C179.8,307.1,160.7,311.7,143.9,314.6z M226.6,281.4c-18.7-19.9-35.8-39.3-50.7-57.2
		c1.6-3.2,3.2-6.4,4.8-9.6c12.7-24.5,26.9-46.7,41.7-65.7c18.5,1.2,38,4,57.9,8.3c9.2,2,18.2,4.3,26.9,6.9
		c5.7,25.9,10,55.7,12.2,87.6c0.1,1,0.1,1.9,0.2,2.9c-16.5,8-34.4,15.9-53.3,23.4c-10.7,4.3-21.3,8.2-31.6,11.8
		C232,287.1,229.3,284.3,226.6,281.4z M316.2,367.1c-16.5-13.7-35.6-31.1-55.8-51c6.4-2.4,12.9-4.8,19.4-7.4
		c14.3-5.7,28.1-11.7,41.1-17.8C321.1,319.1,319.5,345.1,316.2,367.1z"/>
	<path class="st1" d="M222.3,148.9c-14.7,18.9-28.9,41.1-41.7,65.7c-1.6,3.2-3.2,6.4-4.8,9.6c14.9,18,32,37.4,50.7,57.2
		c2.7,2.9,5.4,5.7,8.1,8.5c10.3-3.6,20.9-7.6,31.6-11.8c18.9-7.5,36.8-15.4,53.3-23.4c-0.1-1-0.1-1.9-0.2-2.9
		c-2.2-31.9-6.5-61.7-12.2-87.6c-8.7-2.5-17.7-4.9-26.9-6.9C260.3,152.9,240.8,150.2,222.3,148.9"/>
	<path class="st3" d="M296.5,246.4c-6.8-1.2-13.7,2.2-19.6,8.6c-3.8-15.2-13.7-26.7-26.9-29.1c-13.2-2.4-26.6,5-35.6,18
		c-3.2-8.1-8.5-13.6-15.3-14.8c-3.3-0.6-6.6-0.1-9.9,1.3c13,15.3,27.1,31,41.9,46.7c1.7,1.8,3.4,3.6,5.2,5.5
		c9.1-3.2,18.3-6.7,27.5-10.4c15-6,29.6-12.3,43.7-18.9C304.6,249.6,301,247.2,296.5,246.4z"/>
	
		<radialGradient id="SVGID_3_" cx="-310.4463" cy="823.0286" r="0.2587" gradientTransform="matrix(-285.9334 -366.7314 -360.9206 281.4029 208614.0781 -345142.5312)" gradientUnits="userSpaceOnUse">
		<stop  offset="0" style="stop-color:#360004"/>
		<stop  offset="1" style="stop-color:#FF0000"/>
	</radialGradient>
	<path class="st4" d="M301.7,169.1c-7.5-2.1-15.2-4.1-22.9-5.7c-18-4-36-6.6-53.5-8c-14.2,18.6-27.3,39.5-39,62c-1,1.9-2,3.9-3,5.9
		c2,2.4,4,4.7,6,7.1c3.2-1.4,6.6-1.9,9.9-1.3c6.8,1.2,12.1,6.8,15.3,14.8c7.4-10.6,17.6-17.5,28.4-18.3c1-4.7,1.9-9.2,2.9-13.7
		c-7.6-1.3-15.1-2.5-23.7-3.9l3.2-12.9c8.6,1.4,15.9,2.6,23.2,3.8c0.7-3.3,1.4-6.6,2.1-9.9c-4.9-0.8-10.2-1.6-17.8-2.9L236,173
		c7.7,1.2,12.8,2,17.5,2.8c0.7-3.4,1.5-6.8,2.2-10.1c2.9,0.3,11.1,1.7,13.5,2.2c-0.7,3.3-1.5,6.7-2.3,10.2
		c4.7,0.8,10.3,1.9,18.2,3.3c-0.3,2.8-1.8,10.8-2.3,13.2c-8.1-1.5-13.9-2.5-18.8-3.4c-0.7,3.2-1.4,6.5-2.1,9.9
		c6.9,1.2,14.4,2.6,23.7,4.3c-0.3,2.8-1.8,10.8-2.3,13.2c-9.2-1.7-17-3.1-24.2-4.4c-0.9,4.5-1.9,9-2.9,13.6
		c10,4.4,17.4,14.5,20.6,27.2c5.9-6.5,12.9-9.8,19.6-8.6c4.4,0.8,8.1,3.2,11,7c1.8-0.8,3.6-1.7,5.4-2.6
		C310.9,222.3,307.1,194.1,301.7,169.1z"/>
	<path class="st1" d="M115.8,411.8l-4.3,4.4c0.1-2.3,0-4.1-0.4-5.6c-0.4-1.5-1.2-2.8-2.3-3.8c-1.2-1.1-2.3-1.8-3.5-1.9
		c-1.2-0.1-2.3,0.3-3.2,1.2c-0.7,0.8-1.2,1.6-1.3,2.7c-0.1,1,0.1,2.9,0.8,5.7c1,4.3,1.3,7.3,1.1,8.9c-0.3,1.6-1,3-2.3,4.3
		c-1.8,1.8-3.9,2.7-6.3,2.6c-2.4-0.1-4.7-1.2-6.7-3.2c-0.9-0.9-1.7-1.9-2.3-3c-0.6-1.1-1.1-2.4-1.5-3.8l3.7-3.8
		c0.2,1.8,0.6,3.4,1.1,4.6c0.5,1.2,1.2,2.3,2.1,3.1c1,1,2.2,1.6,3.3,1.8c1.2,0.1,2.2-0.2,3-1c1.1-1.2,1.2-4,0.1-8.4l-0.2-0.8
		c-0.9-3.6-1.1-6.3-0.8-8c0.4-1.7,1.3-3.4,2.9-5c1.8-1.8,3.9-2.6,6.3-2.5c2.4,0.1,4.7,1.2,6.7,3.1c1.3,1.2,2.2,2.5,2.9,3.9
		C115.2,408.6,115.6,410.1,115.8,411.8"/>
	<polygon class="st1" points="91.5,381.7 64.7,400.6 62,396.7 85.4,380.3 76.4,367.5 79.9,365.1 	"/>
	<path class="st1" d="M56.3,357.5c-2,0.8-4.2,1.2-6.4,1.2c-2.2,0-4.4-0.5-6.5-1.4c-2.1-0.9-4-2.2-5.6-3.8c-1.6-1.6-2.8-3.5-3.7-5.7
		c-0.9-2.2-1.4-4.4-1.4-6.7c0-2.3,0.4-4.5,1.2-6.6c0.9-2.2,2.1-4.1,3.6-5.7c1.6-1.6,3.4-2.8,5.6-3.7c2.1-0.9,4.2-1.3,6.5-1.2
		c2.2,0,4.4,0.5,6.5,1.4c2.2,1,4,2.2,5.6,3.9c1.6,1.6,2.8,3.5,3.7,5.8c0.9,2.2,1.3,4.4,1.4,6.7c0,2.3-0.4,4.5-1.2,6.6
		c-0.9,2.2-2.1,4.1-3.7,5.7C60.3,355.4,58.4,356.7,56.3,357.5 M54.5,352.9c1.5-0.6,2.9-1.5,4.1-2.7c1.2-1.2,2.1-2.5,2.7-4
		c0.6-1.5,1-3.1,1-4.8c0-1.7-0.3-3.3-1-4.8c-0.7-1.6-1.6-3-2.7-4.1c-1.1-1.2-2.5-2.1-4.1-2.7c-1.5-0.6-3.1-1-4.8-1
		c-1.6,0-3.2,0.3-4.8,1c-1.5,0.6-2.9,1.5-4,2.7c-1.1,1.1-2,2.5-2.7,4.1c-0.7,1.5-1,3.1-1,4.8c0,1.6,0.3,3.2,1,4.8
		c0.6,1.5,1.5,2.8,2.7,4c1.2,1.2,2.5,2.1,4.1,2.8c1.5,0.6,3.1,1,4.7,1C51.3,353.8,53,353.5,54.5,352.9"/>
	<polygon class="st1" points="52.3,290.1 22,309.7 21.2,304.8 42.6,291 17.9,284.5 17.1,279.7 52.1,288.9 	"/>
	<polygon class="st1" points="49,257.5 16.2,256.2 17,236.5 21.2,236.6 20.6,251.7 30.5,252.1 31.1,237.4 35.4,237.6 34.8,252.3 
		45,252.7 45.6,237.1 49.8,237.3 	"/>
	<polygon class="st1" points="52.3,217.4 20.6,209 21.7,205 51.8,190.7 27.2,184.2 28.4,179.6 60.1,188.1 59.1,192.1 28.9,206.4 
		53.5,212.9 	"/>
	<path class="st1" d="M65.5,168.9l-5.5-2.8c2.2-0.5,3.9-1.2,5.2-2.1c1.3-0.9,2.3-2,3-3.3c0.7-1.4,1-2.8,0.7-3.9
		c-0.2-1.2-1-2.1-2.1-2.7c-0.9-0.5-1.9-0.6-2.9-0.4c-1,0.2-2.7,1-5.2,2.4c-3.8,2.2-6.5,3.4-8.1,3.7c-1.6,0.2-3.2,0-4.8-0.9
		c-2.3-1.2-3.7-2.9-4.3-5.3c-0.6-2.4-0.3-4.8,1-7.3c0.6-1.1,1.3-2.1,2.2-3.1c0.9-0.9,2-1.8,3.2-2.5l4.7,2.4c-1.7,0.8-3,1.5-4.1,2.4
		c-1,0.8-1.8,1.8-2.4,2.9c-0.7,1.3-0.9,2.5-0.7,3.7c0.2,1.2,0.8,2,1.9,2.5c1.5,0.7,4.1-0.1,8-2.4l0.7-0.4c3.2-1.9,5.6-2.9,7.4-3.1
		c1.8-0.2,3.6,0.2,5.6,1.2c2.2,1.1,3.7,2.9,4.3,5.3c0.6,2.4,0.3,4.8-1,7.3c-0.8,1.6-1.8,2.9-2.9,3.9C68.4,167.4,67,168.2,65.5,168.9
		"/>
	<polygon class="st1" points="86.8,136.8 61,116.5 63.9,112.8 75.5,121.9 72.4,102 76.1,97.4 79.3,118.1 103.5,115.6 99.5,120.7 
		76.9,123.1 89.7,133.1 	"/>
	<path class="st1" d="M121.4,99.2l-10.5-12.6l-20.2-4.5l4.3-3.6l15.3,3.4l-0.5-15.8l4.3-3.6l0.6,21.2L125,96.1L121.4,99.2z M97.9,72
		l-1.5-9.4l3.2-2.7l0.2,10.5L97.9,72z"/>
	<polygon class="st1" points="173.2,66.5 161.3,35.9 178.7,29.1 180.2,33 167.1,38.1 170.6,47.1 183.3,42.2 184.8,46.1 172.2,51.1 
		177.5,64.8 	"/>
	<path class="st1" d="M204.1,21.8l4.6-0.7l3,18.6c0.3,2.1,0.7,3.5,1,4.4c0.4,0.8,0.9,1.5,1.5,2.1c1.1,1,2.4,1.6,3.8,2
		c1.4,0.3,2.9,0.4,4.6,0.1c2.8-0.5,5-1.5,6.4-3.3c1.5-1.7,2-3.8,1.7-6.2l-3.3-20.7l4.6-0.7l3.3,20.8c0.6,3.6-0.3,6.7-2.5,9.4
		c-2.2,2.7-5.4,4.3-9.6,5c-2.5,0.4-4.7,0.3-6.9-0.2c-2.1-0.6-4-1.6-5.6-3c-1-0.9-1.8-1.9-2.3-3.1c-0.5-1.2-1-3.1-1.4-5.6L204.1,21.8
		z"/>
	<polygon class="st1" points="267,49.7 268.6,21.2 256.6,20.5 256.8,16.2 285.5,17.9 285.3,22.1 273.3,21.4 271.7,49.9 	"/>
	<path class="st1" d="M301.6,54.2l8.8-31.6l9.2,2.6c3.1,0.9,5.4,2.3,6.7,4.2c1.3,1.9,1.6,4.2,0.9,6.8c-0.4,1.6-1.2,2.9-2.3,3.7
		c-1.1,0.9-2.5,1.4-4.2,1.5c2.2,1.2,3.7,2.7,4.5,4.4c0.9,1.8,1,3.7,0.4,5.7c-0.7,2.6-2.3,4.4-4.6,5.5c-2.4,1-5.2,1.1-8.5,0.2
		L301.6,54.2z M310,41.5l-2.7,9.8l6,1.7c2.2,0.6,3.9,0.7,5.1,0.2c1.2-0.5,2.1-1.6,2.5-3.2c0.5-1.7,0.3-3.1-0.7-4.3
		c-0.9-1.1-2.6-2-5-2.7L310,41.5z M311.1,37.4l3,0.8c2.3,0.6,4.1,0.7,5.5,0.2c1.3-0.5,2.3-1.6,2.7-3.3c0.4-1.6,0.3-2.8-0.4-3.8
		c-0.7-1-2-1.7-3.9-2.2l-4.3-1.2L311.1,37.4z"/>
	<path class="st1" d="M337.3,65.3l27.8-22.5l3,1.6l-2.4,35.8l-4.3-2.2l0.7-10.5l-12.4-6.5l-8.2,6.6L337.3,65.3z M353.4,58l9.1,4.7
		l0.9-12.9L353.4,58z"/>
	<polygon class="st1" points="379.5,90.1 400.2,64.6 403.8,67.5 385.8,89.7 397.9,99.6 395.3,102.9 	"/>
	<path class="st1" d="M420.1,103.7c1.7-1.4,3.7-2.3,5.8-2.9c2.2-0.6,4.4-0.7,6.6-0.4c2.3,0.3,4.4,1,6.4,2.2c2,1.1,3.7,2.6,5.1,4.4
		c1.5,1.9,2.6,3.9,3.2,6.1c0.7,2.2,0.9,4.4,0.6,6.7c-0.2,2.4-0.9,4.5-1.9,6.5c-1.1,1.9-2.5,3.6-4.4,5.1c-1.8,1.4-3.7,2.4-5.9,3
		c-2.2,0.6-4.4,0.7-6.6,0.4c-2.3-0.3-4.5-1-6.4-2.2c-2-1.1-3.7-2.6-5.2-4.5c-1.4-1.8-2.5-3.8-3.1-6c-0.7-2.2-0.9-4.4-0.6-6.7
		c0.2-2.3,0.9-4.5,2-6.5C416.8,106.9,418.2,105.1,420.1,103.7 M423.1,107.7c-1.3,1-2.4,2.3-3.2,3.7c-0.8,1.4-1.3,3-1.5,4.6
		c-0.2,1.6-0.1,3.2,0.4,4.8c0.5,1.6,1.2,3.1,2.3,4.4c1.1,1.3,2.3,2.4,3.7,3.2c1.4,0.8,3,1.3,4.7,1.5c1.6,0.2,3.3,0.1,4.8-0.4
		c1.6-0.4,3-1.2,4.3-2.2c1.3-1,2.4-2.3,3.1-3.7c0.8-1.4,1.3-3,1.5-4.7c0.2-1.7,0.1-3.3-0.3-4.9c-0.4-1.6-1.2-3-2.2-4.4
		c-1-1.3-2.2-2.3-3.7-3.1c-1.5-0.8-3-1.3-4.7-1.5c-1.6-0.2-3.2-0.1-4.8,0.4C425.8,105.9,424.4,106.7,423.1,107.7"/>
	<polygon class="st1" points="442.5,167.3 466.2,140.1 468.3,144.6 451.5,163.8 477.1,163.3 479.2,167.6 443,168.4 	"/>
	<path class="st1" d="M456.5,205.3l16-3.8l13-16.1l1.3,5.4l-9.9,12.2l14.4,6.6l1.3,5.5l-19.2-8.9l-15.7,3.8L456.5,205.3z
		 M491.3,196.4l9.1,2.9l1,4.1l-9.5-4.5L491.3,196.4z"/>
	<polygon class="st1" points="463.2,263 489.4,287.5 491.5,267.6 495.6,268 492.7,296 492.1,295.9 466.3,271.9 464.1,293 
		460.1,292.6 	"/>
	<polygon class="st1" points="452.5,319.8 488.4,316.4 486.9,321 461.5,323.5 480.5,340.6 479,345.2 452.1,321 	"/>
	<path class="st1" d="M442.8,346.3l21.2,28.8l-1.7,3l-35.6-4.1l2.4-4.2l10.5,1.2l7-12.1l-6.2-8.5L442.8,346.3z M449.4,362.6
		l-5.1,8.8l12.8,1.5L449.4,362.6z M467.8,381.9c0.6,0.3,0.9,0.8,1.1,1.4c0.2,0.6,0.1,1.2-0.2,1.7c-0.3,0.5-0.8,0.9-1.5,1.1
		c-0.7,0.2-1.2,0.1-1.8-0.2c-0.6-0.3-0.9-0.8-1.1-1.4c-0.2-0.6-0.1-1.2,0.3-1.8c0.3-0.6,0.8-0.9,1.4-1.1
		C466.7,381.5,467.3,381.6,467.8,381.9 M472.3,374.2c0.6,0.3,0.9,0.8,1.1,1.4c0.2,0.6,0.1,1.2-0.2,1.8c-0.3,0.5-0.8,0.9-1.4,1
		c-0.7,0.2-1.2,0.1-1.8-0.2c-0.6-0.3-0.9-0.8-1.1-1.4c-0.2-0.6-0.1-1.2,0.3-1.8c0.3-0.6,0.8-0.9,1.4-1.1
		C471.2,373.8,471.8,373.9,472.3,374.2"/>
	<polygon class="st1" points="418.6,384.8 425.1,420.1 438.7,405.3 441.7,408.1 422.7,428.8 422.3,428.5 415.8,393.8 401.5,409.4 
		398.5,406.7 	"/>
	<path class="st1" d="M187.2,486.5l2-8.3c2.4,2.4,4.5,4.2,6.3,5.4c1.8,1.2,3.6,1.9,5.4,2.4c1.8,0.4,3.3,0.5,4.4,0.1
		c1.1-0.3,1.7-1.1,2-2.2c0.2-0.9,0.1-1.7-0.4-2.4c-0.5-0.7-1.7-1.7-3.7-2.9c-4.9-3.1-8.1-5.9-9.7-8.4c-1.5-2.4-2-5.2-1.2-8.2
		c0.8-3.2,2.7-5.5,5.8-6.9c3.1-1.4,6.7-1.6,10.9-0.6c2.1,0.5,4.2,1.3,6.2,2.3c2,1,4,2.3,5.8,3.8l-1.8,7.7c-2.2-1.9-4.3-3.3-6.1-4.4
		c-1.9-1.1-3.6-1.8-5.3-2.2c-1.8-0.4-3.2-0.5-4.3-0.2c-1.1,0.3-1.7,0.9-1.9,1.9c-0.2,0.8,0.1,1.6,0.7,2.5c0.7,0.9,1.8,1.8,3.3,2.9
		c0.3,0.2,0.8,0.6,1.5,1c3.3,2.2,5.6,3.9,6.9,5.2c1.4,1.4,2.3,3,2.8,4.7c0.5,1.8,0.4,3.7-0.1,5.8c-0.8,3.5-2.8,5.9-5.9,7.2
		c-3.1,1.4-7,1.5-11.6,0.4c-2.3-0.5-4.5-1.4-6.5-2.5C190.8,489.6,188.9,488.2,187.2,486.5"/>
	<polygon class="st1" points="241.1,499 241.6,460.4 266.6,460.8 266.5,467.9 251.2,467.7 251.1,476.1 265.4,476.3 265.3,483.5 
		251,483.3 250.7,499.1 	"/>
	<polygon class="st1" points="289.9,497.6 303.8,462.4 284.8,466.6 283.2,459.6 318.3,451.8 304.5,486.8 324.9,482.3 326.5,489.5 	
		"/>
</g>
</svg>
