<?xml version="1.0" encoding="UTF-8" standalone="no"?>
<!-- Generator: Adobe Illustrator 13.0.0, SVG Export Plug-In . SVG Version: 6.00 Build 14948)  -->
<svg
   xmlns:dc="http://purl.org/dc/elements/1.1/"
   xmlns:cc="http://web.resource.org/cc/"
   xmlns:rdf="http://www.w3.org/1999/02/22-rdf-syntax-ns#"
   xmlns:svg="http://www.w3.org/2000/svg"
   xmlns="http://www.w3.org/2000/svg"
   xmlns:sodipodi="http://sodipodi.sourceforge.net/DTD/sodipodi-0.dtd"
   xmlns:inkscape="http://www.inkscape.org/namespaces/inkscape"
   version="1.0"
   id="HQFL"
   x="0px"
   y="0px"
   width="250"
   height="250"
   viewBox="0 0 328.201 363.75"
   enable-background="new 0 0 328.201 363.75"
   xml:space="preserve"
   sodipodi:version="0.32"
   inkscape:version="0.45.1"
   sodipodi:docname="colocoloreformed.svg"
   inkscape:output_extension="org.inkscape.output.svg.inkscape"
   sodipodi:docbase="C:\Users\Fernando\Documents\+backup!\!!!!comiccovers!"><metadata
   id="metadata2302"><rdf:RDF><cc:Work
       rdf:about=""><dc:format>image/svg+xml</dc:format><dc:type
         rdf:resource="http://purl.org/dc/dcmitype/StillImage" /></cc:Work></rdf:RDF></metadata><defs
   id="defs2300">

	

	

	

	

	

	

	

	

	

	

	

	

	

	

	

	

	

	

	

	

	

	

	

</defs><sodipodi:namedview
   inkscape:window-height="706"
   inkscape:window-width="1366"
   inkscape:pageshadow="2"
   inkscape:pageopacity="0.0"
   guidetolerance="10.0"
   gridtolerance="10.0"
   objecttolerance="10.0"
   borderopacity="1.0"
   bordercolor="#666666"
   pagecolor="#ffffff"
   id="base"
   width="250px"
   height="250px"
   inkscape:zoom="1.3985622"
   inkscape:cx="167.2211"
   inkscape:cy="104.01572"
   inkscape:window-x="-8"
   inkscape:window-y="-8"
   inkscape:current-layer="HQFL" />

<g
   id="g2327"
   transform="matrix(1.0650139,0,0,1.0650139,-10.537473,-37.000129)"><path
     d="M 296.092,65.149 C 296.092,65.149 227.134,83.749 160.534,44.749 C 93.934,83.749 24.975,65.149 24.975,65.149 C 24.975,65.149 -1.2,124.549 23.4,204.949 C 54.795,307.56 160.534,363.75 160.534,363.75 C 160.534,363.75 266.272,307.56 297.667,204.949 C 322.267,124.549 296.092,65.149 296.092,65.149 z "
     id="path2253"
     style="fill:#005d9d" /><path
     d="M 109.8,116.35 C 109.8,116.35 106.2,107.15 111.4,105.15 C 116.6,103.15 116.2,89.15 137.8,95.15 C 159.4,101.15 167.8,97.55 178.2,105.95 C 188.599,114.35 196.999,127.55 195,138.751 C 195,138.751 199.399,137.551 199,143.951 C 198.6,150.35 203.8,156.35 200.599,164.351 C 200.599,164.351 206.2,163.551 218.2,194.351 C 230.2,225.151 247.399,244.351 247.399,244.351 L 105,244.351 C 105,244.351 111.4,232.351 132.2,225.95 C 132.2,225.95 137.327,216.795 134.6,212.351 C 132.775,209.375 115.165,213.031 103.8,211.775 C 97.632,211.094 94.968,209.956 95.4,202.076 C 95.561,199.141 97.743,198.247 97.85,192.5 C 97.917,188.943 94.992,191.943 95.004,184.475 C 95.006,183.517 95.059,182.439 95.175,181.051 C 95.175,181.051 100.8,174.35 96.6,170.951 C 96.6,170.951 89.6,171.35 88.8,166.651 C 88,161.951 98.8,150.551 100.1,146.651 C 101.4,142.751 102.4,138.251 102.4,138.251 C 102.4,138.251 102.5,130.651 107.5,126.551 C 107.5,126.55 101.9,119.95 109.8,116.35 z "
     id="path2255" /><path
     d="M 108.2,127.95 C 108.2,127.95 103.4,133.549 103.4,137.55 C 103.4,141.55 101,147.949 101,147.949 C 101,147.949 90.2,163.95 90.2,165.949 C 90.2,167.949 94.2,169.149 95.4,169.149 C 96.6,169.149 99.4,168.75 101.8,169.95 C 104.2,171.15 104.2,165.949 104.2,165.949 C 104.2,165.949 107.849,171.099 107.849,173.1 C 107.849,173.1 104.2,169.95 98.599,171.15 C 98.599,171.15 101.399,173.95 98.2,180.349 C 98.2,180.349 102.599,180.349 109.4,185.149 L 109.8,186.75 C 109.8,186.75 100.6,184.35 96.6,184.35 C 96.6,184.35 95.4,187.95 98.6,188.749 C 98.6,188.749 105.8,189.949 102.6,193.549 C 102.6,193.549 97.8,197.149 97,202.35 C 96.2,207.55 97.4,210.349 106.2,210.349 C 115,210.349 125.801,209.95 132.2,208.75 C 138.6,207.55 148.2,198.75 148.2,198.75 C 148.2,198.75 135,220.35 135.8,236.749 C 135.8,236.749 132.2,234.349 132.2,229.15 C 132.2,229.15 116.6,233.95 108.6,242.749 L 210.601,242.749 C 210.601,242.749 179,228.349 168.6,207.55 L 167.801,212.749 C 167.801,212.749 161,205.15 159.801,191.55 L 153.001,190.35 L 147.401,181.149 L 154.601,181.149 C 154.601,181.149 155.401,177.949 149.401,174.75 C 149.401,174.75 153.001,172.35 145.801,163.149 C 145.801,163.149 149.401,156.75 141.401,148.749 C 133.401,140.748 128.201,134.35 108.2,127.95 z "
     id="path2259"
     style="fill:#f9c288" /><path
     d="M 124.601,143.55 C 124.601,143.55 121.001,137.95 114.601,136.75 C 108.201,135.55 105.801,137.55 105.801,137.55 C 105.801,137.55 101.801,146.749 112.201,151.95 C 112.201,151.95 113.401,143.55 115.401,144.75 C 117.401,145.95 119.401,145.549 119.401,145.549 C 119.401,145.549 118.601,140.35 124.601,143.55 z "
     id="path2261" /><path
     d="M 136.601,169.549 L 123.401,184.35 C 123.401,184.35 129.401,176.749 122.601,171.949 C 122.6,171.949 126.6,168.349 136.601,169.549 z "
     id="path2263" /><path
     d="M 156.6,164.749 C 156.6,164.749 161.4,169.149 164.201,184.749 L 164.6,178.749 L 173.401,187.549 L 163.8,163.549 C 163.8,163.549 165,170.35 156.6,164.749 z "
     id="path2265"
     style="fill:#ffffff" /><path
     d="M 108.2,125.149 C 108.2,125.149 136.2,136.749 155,146.349 C 173.801,155.949 180.601,162.349 191.801,173.549 L 188.6,162.348 C 188.6,162.348 194.6,165.549 197.801,163.548 C 201.001,161.548 196.201,140.748 196.201,140.748 C 196.201,140.748 196.601,146.748 183.8,140.349 C 171.001,133.95 125.636,103.45 113.8,107.149 C 107.4,109.149 112.6,116.349 112.6,116.349 C 112.6,116.349 103.8,118.75 108.2,125.149 z "
     id="path2267"
     style="fill:#ffffff" /><path
     d="M 112.2,299.35 C 112.2,299.35 149.2,331.549 161.2,332.749 C 161.2,332.749 199.4,310.75 208.2,298.95 L 112.2,299.35 z "
     id="path2273"
     style="fill:#f9c288" /><path
     d="M 278.27,92.652 C 278.27,92.652 215.547,104.417 160.534,72.202 C 105.521,104.417 42.799,92.652 42.799,92.652 C 42.799,92.652 26.939,138.118 47.259,204.53 C 73.192,289.288 160.533,332.894 160.533,332.894 C 160.533,332.894 247.875,289.288 273.809,204.53 C 294.129,138.118 278.27,92.652 278.27,92.652 z "
     id="path2275"
     style="fill:none;stroke:#ffffff;stroke-width:2.4000001" /><rect
     x="1.2"
     y="243.349"
     width="325.80099"
     height="55.799999"
     id="rect2277"
     style="fill:#e32219;stroke:#ffffff;stroke-width:2.4000001" /><path
     d="M 39.116,262.622 C 38.73,258.873 35.974,256.173 32.172,256.173 C 26.33,256.173 22.472,260.471 22.472,270.447 C 22.472,280.423 25.944,284.721 31.346,284.721 C 36.857,284.721 39.062,280.478 39.503,277.778 L 47.219,279.486 C 46.888,281.47 44.243,291.007 30.795,291.007 C 20.545,291.007 13.765,283.952 13.765,270.448 C 13.765,256.944 21.316,249.889 32.174,249.889 C 40.331,249.889 45.016,254.189 46.779,261.023 L 39.116,262.622 z "
     id="path2279"
     style="fill:#ffffff" /><path
     d="M 50.292,270.448 C 50.292,256.944 57.843,249.889 68.7,249.889 C 79.558,249.889 87.109,256.944 87.109,270.448 C 87.109,283.952 79.558,291.007 68.7,291.007 C 57.843,291.006 50.292,283.952 50.292,270.448 z M 78.4,270.448 C 78.4,260.472 74.543,256.174 68.7,256.174 C 62.859,256.174 59,260.472 59,270.448 C 59,280.424 62.859,284.722 68.7,284.722 C 74.543,284.722 78.4,280.423 78.4,270.448 z "
     id="path2281"
     style="fill:#ffffff" /><path
     d="M 92.287,250.827 L 100.554,250.827 L 100.554,283.564 L 116.152,283.564 L 116.152,290.069 L 92.287,290.069 L 92.287,250.827 z "
     id="path2283"
     style="fill:#ffffff" /><path
     d="M 118.014,270.448 C 118.014,256.944 125.565,249.889 136.422,249.889 C 147.279,249.889 154.83,256.944 154.83,270.448 C 154.83,283.952 147.279,291.007 136.422,291.007 C 125.565,291.007 118.014,283.952 118.014,270.448 z M 146.122,270.448 C 146.122,260.472 142.264,256.174 136.422,256.174 C 130.58,256.174 126.722,260.472 126.722,270.448 C 126.722,280.424 130.58,284.722 136.422,284.722 C 142.264,284.722 146.122,280.423 146.122,270.448 z "
     id="path2285"
     style="fill:#ffffff" /><path
     d="M 199.189,262.622 C 198.802,258.873 196.047,256.173 192.244,256.173 C 186.401,256.173 182.543,260.471 182.543,270.447 C 182.543,280.423 186.016,284.721 191.417,284.721 C 196.929,284.721 199.132,280.478 199.574,277.778 L 207.291,279.486 C 206.96,281.47 204.314,291.007 190.866,291.007 C 180.615,291.007 173.836,283.952 173.836,270.448 C 173.836,256.944 181.385,249.889 192.244,249.889 C 200.4,249.889 205.085,254.189 206.849,261.023 L 199.189,262.622 z "
     id="path2287"
     style="fill:#ffffff" /><path
     d="M 210.365,270.448 C 210.365,256.944 217.916,249.889 228.774,249.889 C 239.63,249.889 247.182,256.944 247.182,270.448 C 247.182,283.952 239.631,291.007 228.774,291.007 C 217.916,291.006 210.365,283.952 210.365,270.448 z M 238.475,270.448 C 238.475,260.472 234.616,256.174 228.775,256.174 C 222.932,256.174 219.074,260.472 219.074,270.448 C 219.074,280.424 222.932,284.722 228.775,284.722 C 234.615,284.722 238.475,280.423 238.475,270.448 z "
     id="path2289"
     style="fill:#ffffff" /><path
     d="M 252.359,250.827 L 260.628,250.827 L 260.628,283.564 L 276.226,283.564 L 276.226,290.069 L 252.359,290.069 L 252.359,250.827 z "
     id="path2291"
     style="fill:#ffffff" /><path
     d="M 278.087,270.448 C 278.087,256.944 285.637,249.889 296.495,249.889 C 307.354,249.889 314.903,256.944 314.903,270.448 C 314.903,283.952 307.354,291.007 296.495,291.007 C 285.637,291.006 278.087,283.952 278.087,270.448 z M 306.195,270.448 C 306.195,260.472 302.338,256.174 296.494,256.174 C 290.652,256.174 286.794,260.472 286.794,270.448 C 286.794,280.424 290.651,284.722 296.494,284.722 C 302.338,284.722 306.195,280.423 306.195,270.448 z "
     id="path2293"
     style="fill:#ffffff" /><rect
     x="162.17999"
     y="268.60901"
     width="4.8000002"
     height="4.8000002"
     id="rect2295"
     style="fill:#ffffff" /><path
     d="M 202.201,211.549 C 202.201,211.549 209.401,225.349 223.801,234.349 C 223.801,234.349 214.201,219.349 202.201,211.549 z "
     id="path2297"
     style="fill:#ffffff" /></g>

</svg>