<?xml version="1.0" encoding="UTF-8" standalone="no"?>
<svg
   xmlns:dc="http://purl.org/dc/elements/1.1/"
   xmlns:cc="http://creativecommons.org/ns#"
   xmlns:rdf="http://www.w3.org/1999/02/22-rdf-syntax-ns#"
   xmlns:svg="http://www.w3.org/2000/svg"
   xmlns="http://www.w3.org/2000/svg"
   xmlns:xlink="http://www.w3.org/1999/xlink"
   width="23.78537mm"
   height="29.510759mm"
   viewBox="0 0 23.78537 29.510758"
   version="1.1"
   id="svg8">
  <defs
     id="defs2" />
  <metadata
     id="metadata5">
    <rdf:RDF>
      <cc:Work
         rdf:about="">
        <dc:format>image/svg+xml</dc:format>
        <dc:type
           rdf:resource="http://purl.org/dc/dcmitype/StillImage" />
        <dc:title></dc:title>
      </cc:Work>
    </rdf:RDF>
  </metadata>
  <path
     id="path473"
     d="m 18.960286,0.77653338 c 0,0 -1.484834,1.27912882 -7.077573,1.28759342 C 6.2815105,2.1064495 4.779768,0.83568302 4.779768,0.83568302 L 0.75356478,4.8759939 c 0,0 2.07931532,3.8994394 2.10184652,8.4468871 0,0 0.5663276,12.104004 9.1456427,15.46529 8.545497,-3.428901 8.999107,-15.549813 8.999107,-15.549813 -0.02535,-4.5446465 2.025788,-8.4637957 2.025788,-8.4637957 z m 0,0"
     style="fill:#ffffff;fill-opacity:1;fill-rule:nonzero;stroke:none;stroke-width:0.721282" />
  <path
     id="path481"
     d="M 13.054788,2.9234628 4.4952037,17.706926 c 0.6762032,2.648444 2.0145226,5.764606 4.4573025,8.179212 L 21.403066,4.3885665 18.901116,1.8753509 c 0,0 -1.586245,0.8903319 -5.846328,1.0481119"
     style="fill:#eb192e;fill-opacity:1;fill-rule:nonzero;stroke:none;stroke-width:0.721282" />
  <g
     id="g360">
    <path
       id="path475"
       d="m 3.0554528,13.317238 c 0.012268,0.123902 0.1774694,3.099274 1.3467839,6.426742 1.0903734,3.079523 3.2908504,7.102925 7.5988173,8.818796 4.285414,-1.758132 6.452074,-5.806887 7.505829,-8.908962 1.146722,-3.33029 1.284792,-6.297115 1.290415,-6.42392 -0.02045,-4.0628423 1.620062,-7.6805184 1.975083,-8.4158917 L 18.937754,1.0357245 c -0.507157,0.3240247 -2.330082,1.2087136 -6.947986,1.2340868 h -0.19444 C 7.1520713,2.2951641 5.320702,1.4245419 4.8079014,1.1061807 L 1.0042709,4.9069897 C 1.370557,5.6395415 3.0357022,9.245952 3.0554119,13.317238 m 8.9484021,15.693526 -0.07606,-0.03374 C 9.9301415,28.202215 8.2058263,26.889248 6.7829841,25.088875 5.6587934,23.646303 4.7262001,21.885369 4.0133784,19.868025 2.7990218,16.433482 2.6468848,13.362403 2.6440633,13.328606 v -0.0061 C 2.6236175,8.8820785 0.58445774,5.0080122 0.57319211,4.9657508 L 0.49999623,4.838987 4.7685228,0.55919475 4.9235018,0.68595858 c 0.00613,0.0122675 1.5186512,1.20024902 6.8690862,1.17489622 h 0.197302 c 5.316639,-0.028215 6.824004,-1.23124479 6.829647,-1.24533193 l 0.152116,-0.11551865 0.135352,0.12962624 4.17836,4.10228194 -0.07033,0.1351466 c -0.02535,0.036598 -2.02861,3.9275933 -2.014523,8.370809 l 0.0061,0.01227 c 0,0.02821 -0.123902,3.09363 -1.304502,6.545082 -0.690291,2.02859 -1.611618,3.786722 -2.724523,5.243361 -1.403132,1.814481 -3.118983,3.138714 -5.099688,3.93888 z m 0,0"
       style="fill:#000000;fill-opacity:1;fill-rule:nonzero;stroke:none;stroke-width:0.721282" />
    <g
       id="g353">
      <path
         id="path485"
         d="M 4.2416351,16.269997 C 3.973959,14.934499 3.8669049,13.866657 3.827465,13.314437 l -0.00204,-0.02249 C 3.8000676,9.6207436 2.5152753,6.2876318 1.9320595,4.9633996 L 4.8453581,2.0472794 C 5.9272874,2.503711 7.9643412,3.0333998 11.576374,3.0333998 l 0.340913,-0.00204 z M 12.139103,3.0277159 12.257485,2.8332765 h -0.002 v -0.00204 l -0.01431,0.00204 c -0.09017,0 -0.180332,0 -0.270477,0 H 11.57619 c -3.6486512,0 -5.6659953,-0.5381329 -6.7169288,-0.9917634 l -0.05643,-0.025353 -3.1020745,3.1048959 0.028215,0.061951 c 0.5663071,1.2678632 1.8792737,4.6178836 1.9046265,8.31446 l 0.00204,0.03374 c 0.044981,0.619854 0.1746069,1.896182 0.5240457,3.473983 l 0.045185,-0.08178 z m 0,0"
         style="fill:#000000;fill-opacity:1;fill-rule:nonzero;stroke:none;stroke-width:0.721282" />
      <path
         id="path487"
         d="M 5.1404111,19.563649 C 4.9206599,18.940993 4.7403281,18.332404 4.5853696,17.746366 L 13.13651,3.0051642 C 16.139954,2.8867831 17.889642,2.3994171 18.861676,1.9796039 L 21.29319,4.3829234 8.9271534,25.767818 C 7.0084193,23.91952 5.8363445,21.527466 5.1404111,19.563649 M 21.436883,4.5209938 l 0.09855,-0.171949 -2.634377,-2.60056 -0.05909,0.025353 c -0.952303,0.4254358 -2.713257,0.9297718 -5.806867,1.0368463 l -0.002,-0.00204 -8.6497501,14.9102479 h 0.00204 l -0.00204,0.0082 c 0.1578414,0.608568 0.346556,1.250975 0.5775933,1.904626 0.7241077,2.045519 1.9609955,4.55027 4.009315,6.446452 l 0.076058,-0.138009 z m 0,0"
         style="fill:#000000;fill-opacity:1;fill-rule:nonzero;stroke:none;stroke-width:0.721282" />
      <path
         id="path489"
         d="m 19.97458,13.227093 c -0.0061,0.121243 -0.163361,3.071078 -1.256597,6.252033 -0.969232,2.854149 -2.927386,6.615518 -6.747925,8.356721 C 11.133253,27.463938 10.383792,26.99342 9.7132323,26.458088 L 21.07624,6.7919065 c -0.543776,1.6623236 -1.107282,3.9811405 -1.10166,6.4351865 m 1.625706,-7.3396056 v -0.00204 l -0.169087,-0.098549 c 0,0.00818 -0.002,0.012268 -0.0061,0.020446 L 9.5633443,26.338521 c -0.00204,0 -0.00204,0 -0.00204,0 L 9.462751,26.51047 c 0,0 0,0 0.00204,0 l -0.00204,0.002 h 0.00204 c 0.726929,0.594501 1.544003,1.115746 2.468132,1.521472 l 0.0366,0.01636 0.03946,-0.01636 c 3.907883,-1.763775 5.902676,-5.589937 6.888796,-8.486347 1.101659,-3.209129 1.265062,-6.184419 1.270705,-6.316847 -0.01227,-2.949917 0.814253,-5.702634 1.428465,-7.3367834 z m 0,0"
         style="fill:#000000;fill-opacity:1;fill-rule:nonzero;stroke:none;stroke-width:0.721282" />
    </g>
  </g>
  <g
     id="g370">
    <path
       id="path491"
       d="m 11.896801,6.4650602 c -3.5725936,0.016357 -6.469004,2.9161202 -6.4520954,6.4492738 0.014312,3.538796 2.9414729,6.404211 6.5056224,6.392924 l 0.01431,0.101412 -0.0061,-0.101412 c 3.575415,-0.01431 6.460539,-2.913298 6.452095,-6.452074 -0.02045,-3.5359748 -2.938672,-6.407012 -6.514087,-6.3901238 m 0.06195,13.0450618 v 0.0061 C 8.2703532,19.528523 5.2584446,16.56916 5.2443575,12.914845 5.2239117,9.2689944 8.2055401,6.2824385 11.896473,6.2542643 c 3.68249,-0.00613 6.702863,2.949917 6.71695,6.5985887 0.02045,3.654315 -2.966846,6.643693 -6.654958,6.65778"
       style="fill:#000000;fill-opacity:1;fill-rule:nonzero;stroke:none;stroke-width:0.721282" />
    <path
       id="path493"
       d="m 11.896801,6.4650602 c -3.5725936,0.016357 -6.469004,2.9161202 -6.4520954,6.4492738 0.014312,3.538796 2.9414729,6.404211 6.5056224,6.392924 l 0.01431,0.101412 -0.0061,-0.101412 c 3.575415,-0.01431 6.460539,-2.913298 6.452095,-6.452074 -0.02045,-3.5359748 -2.938672,-6.407012 -6.514087,-6.3901238"
       style="fill:#ffffff;fill-opacity:1;fill-rule:nonzero;stroke:none;stroke-width:0.721282" />
  </g>
  <g
     id="g366">
    <path
       id="path495"
       d="M 11.040266,17.673109 C 8.7862615,17.261761 7.0760335,15.278234 7.0760335,12.900247 c 0,-2.377967 1.710228,-4.355851 3.9642325,-4.7700212 V 7.0652052 C 8.2030457,7.490641 6.0279215,9.941865 6.0279215,12.900247 c 0,0.346555 0.031078,0.684667 0.087303,1.017136 0.4310788,2.490664 2.4202486,4.446017 4.9250005,4.823568 z m 0,0"
       style="fill:#000000;fill-opacity:1;fill-rule:nonzero;stroke:none;stroke-width:0.721282" />
    <path
       id="path497"
       d="M 10.079498,12.311388 H 8.828523 c 0.1521166,-0.805789 0.608589,-1.504544 1.250975,-1.96942 z m -2.4089626,0.588859 c 0,1.442572 0.7156431,2.716078 1.8060165,3.482447 V 14.892238 C 9.1102862,14.438607 8.8679833,13.886387 8.7947261,13.274977 h 1.2847719 v 3.459896 c 0,0 0.397282,0.214149 0.960768,0.332469 V 8.7359729 C 9.1159088,9.141699 7.6705354,10.854749 7.6705354,12.900247"
       style="fill:#000000;fill-opacity:1;fill-rule:nonzero;stroke:none;stroke-width:0.721282" />
    <path
       id="path499"
       d="m 15.858211,14.734458 0.002,-4.7503316 c 0.53249,0.6424066 0.853693,1.4735686 0.853693,2.3779876 0,0.895975 -0.329648,1.729937 -0.856515,2.372344 M 15.753161,8.389417 V 8.383287 C 15.468596,8.1325362 15.099509,7.9071215 14.899468,7.7888018 V 17.999444 c 0.211307,-0.126764 0.695913,-0.470518 0.960767,-0.71002 v -1.073465 c 1.129814,-0.946701 1.842656,-2.330083 1.842656,-3.871265 0,-1.589067 -0.757925,-3.0062862 -1.94973,-3.9557882"
       style="fill:#000000;fill-opacity:1;fill-rule:nonzero;stroke:none;stroke-width:0.721282" />
    <path
       id="path501"
       d="m 12.620888,8.3218028 c 0.431079,0.093028 0.752282,0.4282573 0.763547,0.8903319 V 13.99064 c -0.02535,0.445146 -0.340912,0.766349 -0.763547,0.859336 z m 0.842448,10.2501032 c 0,0 0.462074,-0.09017 0.955124,-0.357842 l -0.842427,-2.583652 0.002,-0.01227 c 0.149255,-0.107136 0.287386,-0.231038 0.402885,-0.380373 0.214149,-0.245125 0.380373,-0.574772 0.380373,-1.005851 v -1.011473 h 0.002 V 9.0702614 c 0,-2.0680497 -2.701991,-2.0821368 -2.701991,-2.0821368 L 11.6593,18.79912 c 0,0 0.478984,0.01431 0.960768,-0.05071 v -2.710436 h 0.01227 z m 0,0"
       style="fill:#000000;fill-opacity:1;fill-rule:nonzero;stroke:none;stroke-width:0.721282" />
  </g>
  <use
     height="100%"
     width="100%"
     xlink:href="#glyph3-1"
     x="186.99159"
     y="49.888199"
     id="use519"
     style="fill:#000000;fill-opacity:1"
     transform="matrix(0.35277779,0,0,0.35277779,-1.0136863,-2.2200454)" />
  <use
     height="100%"
     width="100%"
     xlink:href="#glyph7-3"
     x="181.7433"
     y="384.35489"
     id="use807"
     style="fill:#ffffff;fill-opacity:1"
     transform="matrix(0.35277779,0,0,0.35277779,-1.0136863,-2.2200454)" />
</svg>
