<?xml version="1.0" encoding="UTF-8" standalone="no"?>
<!-- Generator: Adobe Illustrator 13.0.2, SVG Export Plug-In . SVG Version: 6.00 Build 14948)  -->
<svg
   xmlns:dc="http://purl.org/dc/elements/1.1/"
   xmlns:cc="http://web.resource.org/cc/"
   xmlns:rdf="http://www.w3.org/1999/02/22-rdf-syntax-ns#"
   xmlns:svg="http://www.w3.org/2000/svg"
   xmlns="http://www.w3.org/2000/svg"
   xmlns:sodipodi="http://sodipodi.sourceforge.net/DTD/sodipodi-0.dtd"
   xmlns:inkscape="http://www.inkscape.org/namespaces/inkscape"
   version="1.0"
   id="Ebene_1"
   x="0px"
   y="0px"
   width="508.083px"
   height="527.241px"
   viewBox="0 0 508.083 527.241"
   enable-background="new 0 0 508.083 527.241"
   xml:space="preserve"
   sodipodi:version="0.32"
   inkscape:version="0.45.1"
   sodipodi:docname="cai.svg"
   inkscape:output_extension="org.inkscape.output.svg.inkscape"
   sodipodi:docbase="C:\Users\Fernando\Documents\+backup!\!!!!comiccovers!"><metadata
   id="metadata2222"><rdf:RDF><cc:Work
       rdf:about=""><dc:format>image/svg+xml</dc:format><dc:type
         rdf:resource="http://purl.org/dc/dcmitype/StillImage" /></cc:Work></rdf:RDF></metadata><defs
   id="defs2220" /><sodipodi:namedview
   inkscape:window-height="746"
   inkscape:window-width="1366"
   inkscape:pageshadow="2"
   inkscape:pageopacity="0.0"
   guidetolerance="10.0"
   gridtolerance="10.0"
   objecttolerance="10.0"
   borderopacity="1.0"
   bordercolor="#666666"
   pagecolor="#ffffff"
   id="base"
   inkscape:zoom="0.581668"
   inkscape:cx="375.6511"
   inkscape:cy="353.64614"
   inkscape:window-x="-8"
   inkscape:window-y="-8"
   inkscape:current-layer="Ebene_1" />



<g
   id="g5133"
   transform="matrix(0.937195,0,0,0.937195,23.453872,15.788399)"><path
     style="fill:#ec1c24;fill-opacity:1;fill-rule:evenodd"
     id="path2211"
     d="M 324.01,484.474 L 337.695,473.869 L 351.04,462.924 L 363.699,451.633 L 376.015,439.996 L 387.649,427.68 L 398.94,415.364 L 409.545,402.362 L 419.468,389.36 L 429.048,375.678 L 437.943,361.645 L 446.498,347.618 L 454.367,332.905 L 461.893,318.198 L 468.737,303.139 L 474.895,287.746 L 480.71,272.348 L 485.843,256.267 L 490.633,240.186 L 494.74,224.105 L 498.159,207.341 L 501.238,190.574 L 503.634,173.81 L 505.688,156.702 L 507.056,139.253 L 508.081,122.145 L 508.081,104.354 L 508.081,86.562 L 506.37,49.611 L 481.737,49.611 C 466.681,47.557 453.679,38.661 442.388,28.74 C 437.941,24.977 433.836,20.871 430.072,16.081 L 417.415,0 C 406.467,8.553 395.861,17.449 384.227,24.977 C 375.672,30.451 366.778,34.898 357.198,37.977 L 352.408,39.347 C 341.117,41.741 330.169,42.426 318.535,40.372 C 314.088,39.688 310.326,38.661 306.219,37.293 C 292.192,31.819 280.215,22.58 268.241,14.027 L 253.871,3.42 L 237.447,15.395 C 225.815,24.291 213.84,32.844 199.812,37.977 L 196.049,39.004 C 184.074,42.083 172.44,42.426 160.122,40.372 C 157.043,39.688 153.964,39.004 150.885,37.977 C 138.226,33.871 126.935,27.713 115.987,19.844 C 107.433,13.343 98.878,6.5 90.668,0 C 85.535,6.842 80.404,13.685 74.587,20.187 C 63.296,32.162 49.267,43.452 33.188,48.242 C 30.109,48.926 27.371,49.612 24.292,49.612 L 1.711,49.612 L 0,86.562 L 0,104.354 L 0,122.145 L 1.025,139.253 L 2.393,156.702 L 4.447,173.81 L 6.842,190.574 L 9.921,207.341 L 13.343,224.105 L 17.447,240.186 L 22.239,256.267 L 27.37,272.348 L 33.187,287.746 L 39.345,303.139 L 46.187,318.198 L 53.715,332.905 L 61.584,347.618 L 70.137,361.645 L 79.034,375.678 L 88.613,389.36 L 98.536,402.362 L 109.141,415.364 L 120.432,427.68 L 132.066,439.996 L 144.382,451.633 L 157.041,462.924 L 170.384,473.869 L 184.072,484.474 L 198.441,494.4 L 213.497,503.98 L 228.55,513.214 L 253.87,527.241 L 279.531,513.214 L 294.584,503.98 L 309.64,494.4 L 324.01,484.474 L 324.01,484.474 z "
     clip-rule="evenodd" /><path
     id="path2213"
     d="M 253.871,514.61 L 274.399,503.319 L 289.452,494.424 L 303.822,485.184 L 317.852,475.264 L 331.537,464.998 L 344.196,454.393 L 356.855,443.102 L 368.832,431.811 L 380.123,419.834 L 391.071,407.518 L 401.334,395.202 L 411.257,382.2 L 420.494,368.858 L 429.391,355.516 L 437.603,341.483 L 445.472,327.456 L 452.656,312.743 L 459.5,298.036 L 465.658,282.977 L 471.131,267.924 L 476.264,252.527 L 480.711,236.789 L 484.818,220.708 L 488.24,204.628 L 491.319,188.204 L 493.713,171.439 L 495.424,154.674 L 496.792,137.909 L 497.82,120.803 L 498.16,103.354 L 497.82,85.905 L 496.452,58.876 C 490.294,58.876 484.133,59.217 477.974,58.533 C 474.895,57.849 472.159,57.165 469.079,56.138 C 463.261,54.086 457.788,51.348 452.312,47.926 C 441.707,41.084 431.784,32.53 423.232,22.95 C 420.493,19.871 418.099,16.449 415.703,13.37 C 410.57,17.476 405.098,21.58 399.965,25.686 C 389.702,33.214 379.094,39.372 367.463,44.162 C 365.067,45.189 362.33,45.873 359.934,46.9 C 348.303,50.32 336.669,51.347 324.353,50.663 C 318.535,49.979 313.062,48.952 307.244,47.241 C 304.165,46.214 301.086,45.189 298.349,43.819 C 282.268,36.635 268.241,25.344 253.87,15.08 C 241.211,24.659 228.209,34.581 214.18,41.767 C 208.365,44.846 202.548,46.9 196.389,48.611 L 191.256,49.636 C 180.308,51.347 169.702,51.006 158.411,49.293 C 151.567,47.925 145.066,45.873 138.224,43.135 C 129.671,39.715 121.802,35.267 114.274,30.135 C 106.748,24.659 99.563,19.187 92.378,13.37 C 89.64,16.79 87.245,20.555 84.166,23.634 C 71.508,37.662 56.452,49.637 39.003,56.138 C 35.924,57.165 33.188,57.849 30.108,58.533 C 23.95,59.217 17.79,58.876 11.632,58.876 L 10.264,85.905 L 9.921,103.354 L 10.264,120.803 L 11.289,137.909 L 12.657,154.674 L 14.368,171.439 L 16.763,188.204 L 19.842,204.628 L 23.264,220.708 L 27.37,236.789 L 31.817,252.527 L 36.95,267.924 L 42.424,282.977 L 48.584,298.036 L 55.426,312.743 L 62.611,327.456 L 70.48,341.483 L 78.692,355.516 L 87.245,368.858 L 96.825,382.2 L 106.748,395.202 L 117.012,407.518 L 127.96,419.834 L 139.251,431.811 L 151.226,443.102 L 163.885,454.393 L 176.544,464.998 L 190.23,475.264 L 204.257,485.184 L 218.627,494.424 L 233.681,503.319 L 253.871,514.61 L 253.871,514.61 z "
     clip-rule="evenodd"
     style="fill:#ffffff;fill-rule:evenodd" /><path
     id="path2215"
     d="M 76.639,74.271 C 82.797,74.271 87.587,79.061 87.587,84.878 C 87.587,91.036 82.797,95.826 76.639,95.826 C 70.824,95.826 66.034,91.036 66.034,84.878 C 66.034,79.061 70.824,74.271 76.639,74.271 L 76.639,74.271 z M 181.336,171.783 C 187.494,171.783 192.284,176.916 192.284,182.731 C 192.284,188.548 187.494,193.338 181.336,193.338 C 175.519,193.338 170.729,188.548 170.729,182.731 C 170.729,176.916 175.519,171.783 181.336,171.783 L 181.336,171.783 z M 300.743,274.083 C 306.561,274.083 311.351,279.216 311.351,285.034 C 311.351,290.847 306.561,295.639 300.743,295.639 C 294.928,295.639 289.795,290.846 289.795,285.034 C 289.794,279.216 294.927,274.083 300.743,274.083 L 300.743,274.083 z M 378.751,353.46 C 384.569,353.46 389.359,358.253 389.359,364.411 C 389.359,370.224 384.569,375.016 378.751,375.016 C 372.936,375.016 367.803,370.223 367.803,364.411 C 367.803,358.253 372.936,353.46 378.751,353.46 L 378.751,353.46 z M 153.28,122.857 C 154.307,128.672 160.808,130.383 166.625,130.383 C 169.704,130.383 170.387,128.329 169.704,124.225 C 166.625,104.722 161.492,84.535 134.804,83.167 C 108.802,81.456 95.116,100.959 92.379,125.936 C 89.3,159.808 105.038,179.995 130.015,182.731 C 158.412,186.153 165.255,161.176 169.361,149.201 C 172.097,141.332 154.307,141.675 153.623,151.255 C 152.937,163.571 156.359,169.731 144.041,170.072 C 130.015,170.413 128.303,151.596 128.303,132.779 C 128.303,118.752 126.935,105.408 136.856,103.355 C 148.148,101.302 151.228,111.223 153.28,122.857 L 153.28,122.857 z M 261.74,197.785 C 249.081,186.153 235.395,175.546 223.077,163.571 C 218.973,159.467 216.235,158.781 212.813,162.203 C 210.761,164.939 210.418,167.677 211.788,170.072 C 214.182,174.862 214.867,178.968 214.867,183.415 L 196.05,223.446 C 193.654,228.579 188.522,226.182 184.758,227.209 C 182.706,229.605 182.706,231.999 184.417,234.394 L 195.024,244.658 C 196.392,246.369 199.471,247.054 201.866,244.658 C 202.893,243.631 202.893,241.922 202.55,240.552 C 201.182,233.71 202.55,229.262 205.629,231.999 L 235.396,256.292 C 239.502,259.712 240.186,265.188 240.186,269.975 C 239.845,274.082 239.502,274.428 242.238,277.504 L 267.214,302.137 C 269.953,304.879 274.058,304.533 276.111,300.426 C 277.822,296.664 275.425,293.242 273.372,287.424 C 264.82,261.766 261.398,235.078 261.398,210.102 C 263.794,209.418 264.82,208.391 264.82,206.68 C 265.504,202.918 264.476,200.18 261.74,197.785 L 261.74,197.785 z M 223.762,185.126 L 208.365,217.972 L 233.683,238.159 L 230.604,194.706 C 230.262,190.6 226.841,186.837 223.762,185.126 L 223.762,185.126 z M 355.144,276.819 L 326.061,254.923 C 322.982,252.187 319.563,252.187 317.509,253.896 C 314.773,256.292 315.798,259.713 317.852,262.108 C 319.903,264.504 320.931,269.636 320.588,272.718 L 320.588,333.275 C 320.588,337.037 319.902,341.144 317.509,341.484 C 313.405,341.83 311.694,341.144 311.008,343.88 C 310.325,345.937 310.325,348.327 313.404,350.724 L 346.934,377.413 C 349.67,379.464 353.092,379.124 355.486,377.413 C 357.197,376.388 355.829,373.306 354.8,371.595 C 351.721,367.833 350.353,365.097 350.353,361.675 L 350.353,292.218 C 350.353,287.425 357.197,286.745 357.879,282.978 C 358.566,279.901 357.541,278.53 355.144,276.819 L 355.144,276.819 z "
     clip-rule="evenodd"
     style="fill-rule:evenodd" /><path
     style="fill:#ec1c24;fill-opacity:1;fill-rule:evenodd"
     id="path2217"
     d="M 253.871,502.979 C 292.531,482.793 326.404,458.155 355.487,430.446 L 20.528,119.434 C 25.318,282.638 104.353,424.282 253.871,502.979 L 253.871,502.979 z M 437.943,319.933 C 475.921,246.029 492.344,160.149 486.869,69.14 C 448.891,70.851 413.993,27.741 413.993,27.741 C 393.465,44.163 367.464,60.929 332.905,60.929 C 298.349,61.27 278.164,45.191 253.871,27.741 C 229.921,45.19 209.734,61.27 175.177,60.929 C 169.019,60.929 163.202,60.588 157.386,59.559 L 437.943,319.933 L 437.943,319.933 z "
     clip-rule="evenodd" /></g>
</svg>