<?xml version="1.0" encoding="utf-8"?>
<!-- Generator: Adobe Illustrator 13.0.2, SVG Export Plug-In . SVG Version: 6.00 Build 14948)  -->
<!DOCTYPE svg PUBLIC "-//W3C//DTD SVG 1.0//EN" "http://www.w3.org/TR/2001/REC-SVG-20010904/DTD/svg10.dtd">
<svg version="1.0" id="Ebene_1" xmlns="http://www.w3.org/2000/svg" xmlns:xlink="http://www.w3.org/1999/xlink" x="0px" y="0px"
	 width="566px" height="566px" viewBox="0 0 566 566" enable-background="new 0 0 566 566" xml:space="preserve">
<circle fill="#003E81" cx="283" cy="283" r="283"/>
<path fill="#FFFFFF" d="M74.694,283C74.698,167.955,167.955,74.698,283,74.694l0,0C398.044,74.698,491.302,167.955,491.305,283l0,0
	C491.302,398.044,398.044,491.302,283,491.305l0,0C167.955,491.302,74.698,398.044,74.694,283L74.694,283z"/>
<path fill="#199FD6" d="M141.658,141.658C105.477,177.842,83.113,227.788,83.111,283l0,0
	c0.002,55.211,22.366,105.156,58.547,141.342l0,0c36.185,36.18,86.13,58.544,141.342,58.546l0,0
	c55.211-0.002,105.156-22.366,141.342-58.546l0,0c36.18-36.186,58.544-86.131,58.546-141.342l0,0
	c-0.002-55.211-22.366-105.156-58.546-141.342l0,0C388.156,105.477,338.211,83.113,283,83.111l0,0
	C227.788,83.113,177.843,105.477,141.658,141.658L141.658,141.658z"/>
<path fill="#FFFFFF" d="M165.896,386.941c20.515-2.394,30.088-4.787,30.088-27.353V197.522
	c-19.147-23.592-24.617-24.618-29.063-24.618v-8.548h72.143l118.644,145.996h0.684V206.753c0-20.515-4.103-31.797-31.798-33.849
	v-8.548h73.511v8.548c-24.618,3.077-26.669,10.941-26.669,27.353v201.386h-9.574l-152.15-185.316h-0.684v136.764
	c0,24.618,7.181,31.114,32.482,33.85v8.548h-77.614V386.941z"/>
</svg>
