<svg xmlns="http://www.w3.org/2000/svg" viewBox="0 0 121 200" width="121" height="200">
	<style>
		tspan { white-space:pre }
		.shp0 { fill: #fadc06 } 
		.shp1 { fill: #ffffff } 
		.shp2 { fill: #0c8643 } 
		.shp3 { fill: #181413 } 
	</style>
	<g >
		<path class="shp0" d="M59.11 0.18C59.01 0.28 58.75 0.77 58.53 1.27C58.31 1.78 58.04 2.39 57.92 2.65C57.8 2.9 57.62 3.2 57.52 3.32C57.42 3.45 57.25 3.59 57.14 3.65C56.98 3.73 56.59 3.76 55.25 3.8C54.31 3.82 53.48 3.87 53.39 3.89C53.3 3.92 53.2 3.97 53.18 4.01C53.15 4.05 53.13 4.1 53.13 4.13C53.13 4.16 53.26 4.33 53.44 4.51C53.61 4.7 53.92 4.97 54.14 5.12C54.35 5.27 54.66 5.47 54.82 5.57C54.98 5.66 55.41 6.04 55.78 6.41L56.44 7.09C56.05 8.25 55.86 8.87 55.77 9.21C55.68 9.55 55.61 10 55.61 10.21C55.61 10.41 55.63 10.65 55.67 10.74C55.72 10.86 55.79 10.91 55.9 10.91C55.99 10.91 56.32 10.77 56.63 10.61C56.95 10.45 57.4 10.16 57.63 9.97C57.86 9.77 58.23 9.5 58.44 9.36C58.66 9.22 58.92 9.07 59.03 9.02C59.21 8.95 59.26 8.95 59.59 9.12C59.78 9.21 60.12 9.41 60.34 9.56C60.55 9.7 60.92 9.97 61.15 10.16C61.39 10.35 61.72 10.59 61.9 10.69C62.08 10.8 62.4 10.94 62.6 11.01C62.81 11.08 63 11.11 63.03 11.08C63.05 11.05 63.01 10.66 62.92 10.2C62.84 9.75 62.7 9.15 62.62 8.88C62.54 8.61 62.41 8.17 62.33 7.9C62.23 7.6 62.19 7.35 62.22 7.23C62.24 7.14 62.39 6.92 62.54 6.75C62.69 6.59 63.21 6.15 63.7 5.78C64.18 5.41 64.7 4.98 64.84 4.83C65.04 4.63 65.1 4.51 65.1 4.34C65.1 4.22 65.06 4.08 65.02 4.04C64.96 3.98 64.49 3.93 63.42 3.88C62.06 3.81 61.87 3.79 61.55 3.65C61.35 3.56 61.12 3.4 61.02 3.27C60.92 3.14 60.78 2.92 60.7 2.78C60.63 2.63 60.52 2.31 60.46 2.06C60.41 1.81 60.29 1.39 60.2 1.14C60.11 0.89 59.93 0.54 59.8 0.36C59.66 0.18 59.49 0.02 59.42 0.01C59.34 0 59.21 0.07 59.11 0.18ZM33.79 4.67C33.65 4.74 33.57 4.89 33.42 5.27C33.32 5.55 33.1 6.21 32.92 6.73C32.75 7.25 32.55 7.81 32.47 7.97C32.38 8.13 32.25 8.31 32.16 8.36C32.04 8.44 31.69 8.47 30.48 8.49C29.1 8.52 28.92 8.54 28.72 8.65C28.59 8.73 28.43 8.91 28.35 9.08C28.2 9.36 28.2 9.38 28.31 9.5C28.37 9.57 28.92 9.99 29.53 10.45C30.14 10.91 30.74 11.39 30.85 11.52C31.02 11.71 31.06 11.79 31.03 11.94C31 12.04 30.77 12.78 30.51 13.59C30.24 14.39 30.01 15.16 29.98 15.28C29.96 15.41 29.96 15.59 29.98 15.69C30.01 15.84 30.06 15.87 30.2 15.87C30.3 15.87 30.54 15.78 30.74 15.67C30.94 15.55 31.57 15.15 32.14 14.76C32.72 14.38 33.34 13.98 33.53 13.89L33.87 13.72C34.25 13.91 34.77 14.23 35.28 14.55C35.78 14.87 36.38 15.25 36.61 15.38C36.89 15.53 37.1 15.61 37.23 15.6C37.34 15.59 37.47 15.51 37.54 15.41C37.65 15.27 37.66 15.21 37.59 14.83C37.55 14.59 37.38 13.98 37.22 13.46C37.06 12.93 36.88 12.36 36.84 12.18L36.75 11.85C37.23 11.38 37.73 10.97 38.18 10.64C38.63 10.31 39.14 9.9 39.31 9.74C39.48 9.57 39.62 9.38 39.62 9.31C39.62 9.24 39.59 9.08 39.55 8.96C39.51 8.83 39.42 8.73 39.31 8.68C39.21 8.64 38.44 8.59 37.59 8.56C36.71 8.53 35.98 8.48 35.88 8.44C35.77 8.39 35.66 8.26 35.58 8.08C35.51 7.93 35.32 7.41 35.14 6.92C34.97 6.44 34.72 5.78 34.58 5.45C34.44 5.13 34.26 4.8 34.18 4.72C34.1 4.64 34.02 4.57 34 4.57C33.98 4.58 33.89 4.62 33.79 4.67ZM85.21 5.27C85.11 5.37 84.86 5.87 84.64 6.37C84.42 6.87 84.14 7.49 84.03 7.74C83.91 7.99 83.73 8.3 83.63 8.42C83.52 8.54 83.35 8.69 83.24 8.74C83.09 8.82 82.69 8.85 81.35 8.89C80.42 8.92 79.58 8.96 79.49 8.99C79.4 9.01 79.31 9.07 79.28 9.11C79.25 9.15 79.23 9.2 79.23 9.23C79.23 9.25 79.37 9.42 79.54 9.61C79.71 9.79 80.03 10.07 80.24 10.22C80.46 10.37 80.77 10.57 80.93 10.66C81.09 10.76 81.52 11.14 81.88 11.51L82.55 12.18C82.16 13.35 81.97 13.96 81.88 14.3C81.79 14.65 81.71 15.09 81.71 15.3C81.71 15.51 81.74 15.75 81.78 15.84C81.82 15.95 81.89 16 82 16C82.09 16 82.42 15.87 82.74 15.71C83.05 15.54 83.5 15.25 83.73 15.06C83.97 14.87 84.33 14.6 84.55 14.46C84.77 14.32 85.03 14.17 85.14 14.12C85.31 14.04 85.37 14.05 85.69 14.21C85.89 14.31 86.23 14.51 86.44 14.65C86.66 14.8 87.03 15.07 87.26 15.25C87.49 15.44 87.83 15.68 88.01 15.79C88.19 15.9 88.5 16.04 88.71 16.11C88.91 16.18 89.1 16.21 89.13 16.18C89.16 16.15 89.11 15.75 89.03 15.3C88.94 14.84 88.81 14.25 88.73 13.98C88.65 13.71 88.52 13.27 88.43 13C88.34 12.69 88.3 12.44 88.33 12.33C88.35 12.23 88.49 12.01 88.65 11.85C88.8 11.68 89.32 11.24 89.8 10.87C90.29 10.5 90.8 10.08 90.95 9.93C91.15 9.72 91.21 9.61 91.21 9.44C91.21 9.32 91.17 9.18 91.12 9.13C91.06 9.07 90.6 9.03 89.52 8.97C88.16 8.91 87.97 8.89 87.66 8.75C87.45 8.65 87.23 8.49 87.13 8.36C87.03 8.23 86.89 8.01 86.81 7.87C86.74 7.73 86.63 7.4 86.57 7.15C86.51 6.9 86.39 6.49 86.31 6.24C86.22 5.99 86.04 5.63 85.9 5.45C85.77 5.27 85.6 5.12 85.52 5.11C85.44 5.1 85.32 5.16 85.21 5.27ZM56.03 20.84C54.95 20.87 53.45 20.92 52.7 20.96C51.95 21 50.57 21.09 49.63 21.17C48.7 21.24 47.22 21.37 46.34 21.46C45.46 21.55 43.75 21.74 42.55 21.89C41.35 22.03 39.78 22.24 39.06 22.34C38.34 22.45 36.92 22.67 35.9 22.83C34.87 22.99 33.71 23.19 33.32 23.26C32.92 23.33 31.22 23.69 29.53 24.04C27.85 24.4 26.05 24.8 25.55 24.93C25.05 25.05 23.74 25.39 22.65 25.68C21.55 25.97 19.89 26.42 18.96 26.69C18.03 26.96 16.47 27.43 15.5 27.73C14.53 28.03 12.96 28.54 12.01 28.86C11.06 29.18 9.68 29.67 8.94 29.94C8.21 30.2 6.63 30.81 5.45 31.29C4.27 31.76 3.05 32.28 2.74 32.44C2.44 32.6 2.05 32.83 1.88 32.95C1.71 33.08 1.38 33.4 1.16 33.66C0.93 33.93 0.58 34.45 0.36 34.82L-0.02 35.5C0.04 117.05 0.09 143.19 0.13 146.21C0.16 149.23 0.22 152.1 0.26 152.58C0.3 153.06 0.42 153.86 0.53 154.34C0.64 154.83 0.81 155.56 0.92 155.98C1.02 156.39 1.28 157.24 1.49 157.87C1.7 158.5 1.97 159.23 2.07 159.5C2.18 159.77 2.43 160.33 2.63 160.74C2.82 161.16 3.15 161.77 3.36 162.12C3.57 162.46 3.93 163.02 4.18 163.36C4.42 163.7 4.93 164.35 5.3 164.79C5.68 165.24 6.38 165.99 6.86 166.46C7.34 166.93 8.02 167.53 8.36 167.81C8.7 168.08 9.21 168.47 9.5 168.68C9.78 168.88 10.43 169.29 10.93 169.58C11.43 169.87 12.21 170.29 12.66 170.52C13.11 170.74 13.95 171.12 14.52 171.36C15.1 171.6 16.08 171.97 16.71 172.18C17.34 172.39 18.26 172.68 18.76 172.83C19.27 172.98 20.56 173.28 21.64 173.51C22.71 173.74 24.24 174.05 25.03 174.19C25.82 174.34 28.8 174.87 31.65 175.38C34.51 175.88 37.71 176.46 38.77 176.65C39.83 176.85 41.19 177.12 41.8 177.24C42.41 177.37 43.47 177.6 44.15 177.76C44.83 177.92 45.83 178.17 46.37 178.32C46.91 178.46 47.78 178.72 48.3 178.88C48.82 179.04 49.8 179.38 50.48 179.63C51.16 179.88 52.1 180.25 52.57 180.45C53.04 180.65 54.65 181.39 56.16 182.1C57.67 182.81 59.09 183.47 59.33 183.57C59.56 183.66 59.91 183.78 60.11 183.83C60.42 183.9 60.52 183.9 60.92 183.79C61.18 183.72 61.59 183.58 61.84 183.48C62.09 183.37 62.93 182.99 63.7 182.62C64.47 182.26 65.56 181.75 66.11 181.5C66.67 181.25 67.61 180.84 68.2 180.59C68.79 180.34 69.79 179.93 70.42 179.69C71.05 179.44 71.91 179.12 72.35 178.98C72.78 178.83 73.76 178.55 74.53 178.35C75.3 178.15 76.9 177.77 78.09 177.5C79.27 177.22 81.31 176.78 82.62 176.52C83.93 176.26 85.37 175.98 85.82 175.91C86.27 175.83 87.64 175.61 88.86 175.41C90.08 175.21 91.87 174.91 92.84 174.73C93.81 174.55 95.82 174.16 97.31 173.87C98.8 173.58 100.71 173.17 101.55 172.95C102.39 172.74 103.5 172.43 104 172.27C104.5 172.1 105.38 171.78 105.96 171.55C106.53 171.33 107.34 171 107.75 170.82C108.16 170.65 108.93 170.26 109.45 169.96C109.97 169.66 110.73 169.19 111.15 168.91C111.56 168.63 112.25 168.11 112.68 167.76C113.11 167.4 113.71 166.87 114.02 166.58C114.32 166.29 114.89 165.69 115.27 165.24C115.66 164.8 116.19 164.15 116.45 163.8C116.71 163.46 117.11 162.85 117.34 162.46C117.58 162.08 117.89 161.52 118.05 161.23C118.21 160.95 118.51 160.32 118.72 159.83C118.94 159.35 119.26 158.55 119.43 158.07C119.61 157.58 119.87 156.68 120.01 156.06C120.16 155.44 120.37 154.4 120.48 153.74C120.58 153.08 120.7 152.25 120.74 151.89C120.77 151.53 120.84 149.86 120.88 148.17C120.95 145.83 120.97 132.53 120.97 92C120.97 50.49 120.95 38.51 120.89 37.13L120.8 35.37C120.3 34.36 120.02 33.89 119.85 33.69C119.67 33.48 119.34 33.16 119.11 32.98C118.87 32.79 118.37 32.49 118 32.31C117.62 32.14 116.23 31.55 114.9 31.01C113.57 30.47 112.14 29.93 111.72 29.81C111.29 29.69 110.34 29.35 109.6 29.06C108.85 28.77 107.8 28.39 107.26 28.22C106.72 28.04 106.14 27.84 105.96 27.76C105.78 27.68 105.32 27.55 104.94 27.46C104.57 27.38 103.57 27.11 102.73 26.86C101.88 26.61 100.65 26.28 99.98 26.13C99.32 25.97 98.53 25.76 98.22 25.66C97.92 25.55 97.45 25.41 97.18 25.34C96.91 25.27 95.35 24.92 93.72 24.57C92.09 24.21 90.24 23.81 89.61 23.68C88.98 23.55 87.57 23.3 86.48 23.12C85.38 22.94 83.35 22.61 81.97 22.4C80.59 22.19 79.42 21.99 79.36 21.98C79.31 21.96 78.96 21.9 78.58 21.85C78.2 21.8 77.44 21.71 76.88 21.65C76.32 21.6 74.56 21.45 72.97 21.32C71.37 21.2 69.22 21.05 68.2 21C67.18 20.95 64.96 20.89 63.27 20.87C61.59 20.85 59.71 20.83 59.1 20.81C58.49 20.8 57.11 20.82 56.03 20.84Z" />
		<path class="shp1" d="M59.19 20.82C59.5 20.83 60.01 20.83 60.34 20.82C60.66 20.81 60.41 20.8 59.78 20.8C59.15 20.8 58.89 20.81 59.19 20.82Z" />
		<path class="shp2" d="M51.85 23.19C50.96 23.25 49.65 23.36 48.95 23.41C48.25 23.47 46.91 23.59 45.98 23.68C45.05 23.77 43.58 23.93 42.72 24.04C41.85 24.15 40.37 24.35 39.42 24.5C38.47 24.64 36.82 24.91 35.76 25.09C34.71 25.27 32.96 25.59 31.88 25.8C30.8 26.01 28.88 26.42 27.61 26.71C26.33 27 24.66 27.4 23.89 27.6C23.11 27.8 21.73 28.17 20.82 28.42C19.9 28.67 18.3 29.14 17.26 29.47C16.22 29.79 14.56 30.32 13.57 30.65C12.59 30.97 11.1 31.48 10.28 31.78C9.45 32.08 7.85 32.69 6.72 33.13C5.59 33.58 4.36 34.1 3.98 34.29C3.6 34.48 3.22 34.69 3.13 34.76C3.04 34.83 2.89 35 2.8 35.13C2.7 35.26 2.53 35.6 2.42 35.88C2.25 36.31 2.21 36.53 2.15 37.34C2.1 37.98 2.06 42.7 2.04 51.14C2.02 58.2 2.04 78.42 2.08 96.08C2.12 113.74 2.19 132.99 2.22 138.86C2.27 146.93 2.31 149.94 2.38 151.18C2.45 152.33 2.53 153.06 2.65 153.66C2.74 154.12 2.9 154.87 3.01 155.32C3.12 155.77 3.28 156.39 3.37 156.69C3.46 157 3.65 157.55 3.79 157.92C3.93 158.29 4.18 158.88 4.33 159.23C4.49 159.58 4.8 160.19 5.03 160.58C5.25 160.98 5.52 161.45 5.63 161.63C5.75 161.81 6.09 162.28 6.39 162.67C6.7 163.06 7.28 163.74 7.67 164.17C8.07 164.6 8.74 165.25 9.16 165.61C9.59 165.97 10.19 166.45 10.5 166.67C10.81 166.89 11.36 167.25 11.71 167.46C12.07 167.68 12.71 168.03 13.12 168.26C13.53 168.48 14.27 168.84 14.75 169.06C15.23 169.27 16 169.59 16.45 169.77C16.9 169.94 17.75 170.23 18.34 170.41C18.93 170.58 19.87 170.85 20.43 170.99C20.98 171.14 22.09 171.39 22.88 171.55C23.66 171.71 25.1 171.99 26.07 172.17C27.04 172.35 28.95 172.69 30.32 172.92C31.68 173.16 33.68 173.51 34.75 173.71C35.83 173.9 37.24 174.15 37.89 174.26C38.53 174.38 39.82 174.62 40.76 174.8C41.69 174.97 43.12 175.27 43.92 175.45C44.73 175.63 45.88 175.91 46.47 176.07C47.06 176.23 47.97 176.5 48.49 176.66C49.01 176.82 49.75 177.05 50.12 177.18C50.5 177.31 51.28 177.59 51.85 177.81C52.43 178.02 53.43 178.44 54.07 178.74C54.72 179.03 56.41 179.85 57.84 180.54L60.43 181.81C62.18 180.96 63.46 180.34 64.42 179.88C65.37 179.42 66.63 178.84 67.22 178.58C67.81 178.32 68.75 177.93 69.31 177.73C69.87 177.52 71.06 177.11 71.95 176.82C72.85 176.54 73.84 176.23 74.14 176.14C74.45 176.05 74.99 175.9 75.35 175.81C75.71 175.72 76.75 175.48 77.66 175.29C78.58 175.09 79.89 174.83 80.57 174.7C81.25 174.57 83.22 174.21 84.94 173.9C86.66 173.6 88.69 173.23 89.44 173.09C90.2 172.94 91.33 172.76 91.96 172.67C92.59 172.58 93.67 172.39 94.37 172.25C95.07 172.11 96.31 171.87 97.11 171.72C97.92 171.58 99.21 171.31 99.98 171.13C100.76 170.95 101.8 170.68 102.3 170.53C102.8 170.38 103.57 170.14 104 169.98C104.43 169.83 105.13 169.55 105.56 169.36C106 169.18 106.64 168.88 107 168.7C107.36 168.52 107.98 168.19 108.37 167.96C108.77 167.74 109.35 167.39 109.68 167.18C110 166.97 110.62 166.53 111.05 166.21C111.48 165.88 112.15 165.3 112.54 164.93C112.93 164.55 113.46 163.99 113.72 163.68C113.98 163.38 114.38 162.88 114.6 162.57C114.83 162.27 115.17 161.75 115.37 161.43C115.57 161.11 115.89 160.55 116.08 160.19C116.27 159.83 116.58 159.18 116.76 158.75C116.95 158.32 117.21 157.66 117.35 157.28C117.48 156.91 117.74 156.02 117.92 155.32C118.12 154.55 118.27 153.77 118.32 153.33C118.36 152.94 118.42 151.53 118.45 150.2C118.49 148.87 118.55 143.33 118.59 137.88C118.62 132.44 118.68 111.59 118.71 91.54C118.75 68.32 118.75 51.88 118.72 46.24C118.68 41.03 118.62 37.07 118.58 36.61C118.54 36.14 118.47 35.74 118.4 35.6C118.34 35.47 118.14 35.21 117.96 35.01C117.71 34.74 117.46 34.57 117.01 34.35C116.67 34.18 115.75 33.79 114.96 33.48C114.17 33.16 113.07 32.74 112.52 32.53C111.96 32.32 110.96 31.96 110.3 31.73C109.63 31.49 108.19 31.01 107.1 30.64C106 30.28 104.4 29.77 103.54 29.5C102.68 29.23 101.2 28.79 100.25 28.52C99.29 28.25 97.09 27.69 95.35 27.28C93.61 26.86 91.28 26.34 90.16 26.1C89.05 25.87 87.48 25.56 86.67 25.41C85.86 25.27 84.59 25.05 83.83 24.92C83.08 24.8 81.87 24.61 81.16 24.5C80.44 24.39 79.13 24.21 78.25 24.11C77.37 24 75.54 23.81 74.17 23.68C72.81 23.56 71.18 23.42 70.55 23.39C69.92 23.35 68.73 23.29 67.91 23.25C67.08 23.22 65.03 23.16 63.34 23.12C61.65 23.09 58.74 23.06 56.88 23.07C54.33 23.07 53.08 23.1 51.85 23.19Z" />
		<path class="shp0" d="M53.75 31.29C53.03 31.32 51.81 31.39 51.04 31.44C50.26 31.5 48.75 31.62 47.68 31.71C46.6 31.8 44.92 31.95 43.96 32.04C42.99 32.13 41.34 32.33 40.3 32.47C39.26 32.61 37.38 32.89 36.12 33.09C34.87 33.29 32.91 33.61 31.78 33.81C30.65 34.01 29.02 34.3 28.16 34.46C27.3 34.62 26.02 34.89 25.32 35.05C24.62 35.21 23.29 35.54 22.35 35.77C21.42 36 19.66 36.46 18.44 36.78C17.22 37.1 15.54 37.56 14.72 37.79C13.89 38.01 12.58 38.39 11.81 38.62C11.04 38.86 10.25 39.11 10.05 39.18C9.81 39.27 9.58 39.43 9.35 39.66C9.16 39.85 8.96 40.11 8.9 40.24C8.84 40.36 8.77 40.68 8.73 40.95C8.69 41.26 8.65 48.04 8.62 59.47L8.58 77.5C9.15 78.16 9.45 78.44 9.63 78.54L9.94 78.74C25.93 78.82 46.05 78.83 64.97 78.81C83.89 78.78 101.89 78.74 104.98 78.71C108.15 78.67 110.79 78.62 111.05 78.58C111.3 78.54 111.58 78.48 111.67 78.44C111.76 78.41 111.87 78.31 111.92 78.23C111.97 78.15 112.03 77.88 112.06 77.63C112.09 77.38 112.15 75.42 112.19 73.29C112.22 71.15 112.28 63.68 112.32 56.69C112.35 49.09 112.36 43.4 112.32 42.52C112.29 41.71 112.23 40.89 112.18 40.69C112.13 40.47 112.01 40.22 111.87 40.03C111.74 39.87 111.55 39.65 111.44 39.56C111.33 39.47 111.05 39.31 110.82 39.2C110.59 39.1 109.84 38.83 109.15 38.61C108.47 38.39 107.24 38.03 106.41 37.79C105.59 37.56 104.18 37.18 103.28 36.95C102.38 36.71 100.71 36.28 99.56 36C98.41 35.71 96.55 35.27 95.42 35.02C94.29 34.77 92.29 34.35 90.98 34.1C89.67 33.85 87.79 33.51 86.8 33.35C85.81 33.19 83.98 32.91 82.72 32.73C81.47 32.55 79.79 32.33 79 32.24C78.21 32.15 76.73 32 75.71 31.91C74.68 31.82 72.8 31.67 71.53 31.58C70.26 31.49 68.63 31.39 67.91 31.35C67.19 31.31 64 31.27 60.83 31.25C57.65 31.24 54.46 31.26 53.75 31.29Z" />
		<path class="shp2" d="M69.9 36.32C69.59 36.35 69.09 36.46 68.79 36.56C68.48 36.65 67.88 36.91 67.45 37.13C67.02 37.35 66.4 37.72 66.08 37.95C65.76 38.18 65.26 38.59 64.98 38.86C64.7 39.13 64.28 39.59 64.04 39.88C63.81 40.16 63.43 40.69 63.19 41.05C62.95 41.41 62.48 42.23 62.16 42.88C61.83 43.53 61.43 44.43 61.26 44.89C61.09 45.35 60.86 46.05 60.73 46.46C60.61 46.86 60.42 47.59 60.31 48.07C60.2 48.56 60.06 49.28 59.98 49.67C59.91 50.07 59.81 50.86 59.75 51.44C59.7 52.01 59.62 53.03 59.58 53.69C59.54 54.41 59.52 55.43 59.55 56.21C59.57 56.92 59.62 57.88 59.65 58.33C59.69 58.78 59.75 59.45 59.79 59.83C59.83 60.21 59.93 61.02 60.02 61.63C60.11 62.24 60.28 63.15 60.41 63.65C60.53 64.15 60.74 64.95 60.88 65.41C61.02 65.88 61.26 66.57 61.4 66.95C61.54 67.33 61.78 67.9 61.92 68.22C62.06 68.55 62.32 69.06 62.49 69.37C62.66 69.67 62.96 70.19 63.16 70.51C63.36 70.83 63.64 71.26 63.79 71.46C63.93 71.65 64.38 72.16 64.8 72.57C65.34 73.11 65.77 73.47 66.28 73.8C66.67 74.06 67.24 74.39 67.55 74.54C67.85 74.68 68.28 74.86 68.49 74.92C68.71 74.99 69.11 75.07 69.39 75.11C69.67 75.15 70.39 75.18 70.99 75.18C71.67 75.18 72.3 75.14 72.66 75.08C72.97 75.03 73.5 74.89 73.83 74.76C74.16 74.64 74.76 74.38 75.15 74.18C75.55 73.98 76.12 73.62 76.42 73.39C76.73 73.16 77.21 72.76 77.49 72.49C77.78 72.23 78.31 71.64 78.67 71.2C79.03 70.75 79.52 70.07 79.77 69.69C80.01 69.32 80.44 68.55 80.72 67.99C81 67.44 81.36 66.6 81.53 66.13C81.7 65.67 81.95 64.87 82.09 64.37C82.23 63.87 82.43 63.07 82.52 62.61C82.61 62.14 82.75 61.39 82.82 60.94C82.89 60.49 83 59.73 83.05 59.24C83.11 58.76 83.17 57.58 83.19 56.63C83.22 55.56 83.2 54.41 83.15 53.63C83.11 52.92 83.03 51.9 82.98 51.34C82.93 50.78 82.84 50.06 82.78 49.74C82.73 49.42 82.63 48.87 82.55 48.53C82.48 48.19 82.34 47.65 82.25 47.32C82.16 47 81.93 46.31 81.75 45.79C81.56 45.27 81.29 44.58 81.16 44.25C81.02 43.93 80.72 43.28 80.49 42.82C80.26 42.35 79.89 41.7 79.67 41.38C79.45 41.05 79.07 40.53 78.81 40.2C78.55 39.88 78.02 39.31 77.63 38.95C77.23 38.58 76.78 38.19 76.62 38.07C76.46 37.95 76.09 37.72 75.8 37.54C75.52 37.37 74.99 37.11 74.63 36.97C74.27 36.83 73.62 36.62 73.19 36.51C72.51 36.33 72.28 36.3 71.43 36.28C70.89 36.27 70.2 36.29 69.9 36.32ZM83.17 36.56C83.1 36.57 83 36.65 82.95 36.73C82.89 36.82 82.86 37.07 82.87 37.39C82.87 37.68 82.91 38.08 82.97 38.28C83.06 38.59 83.11 38.66 83.42 38.87C83.61 39 84.13 39.3 84.58 39.55C85.22 39.91 85.51 40.12 85.96 40.56L86.54 41.12C86.49 51.24 86.46 58.11 86.44 62.92L86.41 71.65C85.83 72.04 85.5 72.24 85.3 72.34C85.1 72.44 84.65 72.62 84.29 72.75C83.93 72.87 83.5 73.04 83.33 73.13C83.14 73.22 83 73.35 82.97 73.43C82.95 73.51 82.93 73.96 82.94 74.43C82.95 74.9 82.97 75.29 82.99 75.31C83.01 75.33 84.75 75.35 86.86 75.37C89.12 75.38 90.97 75.36 91.37 75.32C91.97 75.27 92.07 75.24 92.17 75.1C92.25 75 92.29 74.84 92.29 74.62C92.29 74.44 92.24 74.15 92.19 73.97C92.14 73.79 92.03 73.58 91.95 73.49C91.86 73.41 91.46 73.2 91.04 73.03C90.63 72.86 90.16 72.63 90 72.52C89.84 72.41 89.66 72.27 89.59 72.2C89.5 72.1 89.47 71.85 89.42 70.9C89.38 70.25 89.32 68.08 89.28 66.07C89.24 64.06 89.21 59.52 89.2 55.98C89.19 50.97 89.2 49.49 89.27 49.3C89.31 49.16 89.39 49.05 89.44 49.05C89.5 49.05 89.63 49.16 89.74 49.3C89.85 49.43 90.84 51.32 91.94 53.49C93.03 55.67 95.56 60.66 97.55 64.6C99.55 68.53 101.43 72.22 101.73 72.8C102.04 73.37 102.43 74.08 102.61 74.38C102.78 74.68 102.99 74.96 103.07 75.01C103.15 75.06 103.41 75.14 103.64 75.18C103.87 75.23 104.23 75.24 104.42 75.22C104.62 75.2 104.85 75.13 104.93 75.07C105.07 74.95 105.07 74.91 105.14 72.4C105.18 71 105.24 67.75 105.27 65.19C105.31 62.62 105.34 57.62 105.34 54.08C105.34 50.54 105.37 47.1 105.4 46.44C105.44 45.57 105.48 45.16 105.56 44.99C105.62 44.85 105.78 44.65 105.94 44.54C106.09 44.43 106.38 44.28 106.58 44.21C106.77 44.14 106.98 44.05 107.04 44C107.1 43.96 107.18 43.84 107.22 43.75C107.26 43.65 107.29 43.35 107.29 43.08C107.29 42.81 107.27 42.53 107.23 42.46C107.19 42.38 107.07 42.28 106.95 42.22C106.84 42.16 106.08 41.9 105.27 41.64C104.46 41.38 102.89 40.87 101.76 40.51C100.64 40.14 99.61 39.82 99.48 39.8C99.28 39.76 99.21 39.78 99.07 39.91C98.98 40 98.85 40.22 98.78 40.4C98.67 40.69 98.67 40.76 98.75 41.08C98.79 41.28 98.91 41.53 99.01 41.64C99.1 41.75 99.49 42.04 99.86 42.29C100.25 42.55 100.83 43.02 101.21 43.4L101.88 44.06C101.84 53.94 101.81 55.63 101.76 55.81C101.72 55.96 101.67 56.09 101.65 56.11C101.63 56.13 101.56 56.08 101.48 56.01C101.41 55.94 101.22 55.66 101.06 55.39C100.91 55.12 100.39 54.11 99.9 53.14C99.42 52.17 98.21 49.7 97.21 47.65C96.22 45.6 94.92 42.97 94.33 41.8C93.75 40.64 93.1 39.39 92.9 39.03C92.7 38.67 92.5 38.32 92.46 38.26C92.42 38.2 92.16 38.09 91.86 38.01C91.57 37.93 90.63 37.73 89.77 37.55C88.91 37.38 87.34 37.09 86.28 36.91C85.22 36.73 84.12 36.58 83.83 36.56C83.54 36.54 83.25 36.54 83.17 36.56ZM51.72 36.85C51.04 36.87 49.44 36.97 48.17 37.06C46.89 37.15 44.53 37.32 42.91 37.43C41.3 37.54 39.17 37.7 38.18 37.79C37.19 37.88 36.27 37.98 36.12 38.01C35.96 38.05 35.79 38.15 35.67 38.29C35.5 38.48 35.49 38.54 35.52 38.86C35.54 39.06 35.6 39.31 35.65 39.42C35.7 39.53 35.86 39.67 36 39.74C36.16 39.81 36.64 39.91 37.23 39.98C37.77 40.05 38.34 40.15 38.51 40.2C38.67 40.25 38.83 40.33 38.87 40.38C38.91 40.43 38.98 40.63 39.02 40.82C39.07 41.03 39.13 42.33 39.16 43.86C39.19 45.33 39.22 49.58 39.22 53.3C39.22 57.02 39.19 62.66 39.17 65.84C39.12 71.42 39.11 71.63 38.99 71.85C38.92 71.97 38.76 72.13 38.63 72.19C38.51 72.25 38 72.41 37.49 72.54C36.99 72.67 36.5 72.82 36.4 72.87C36.3 72.92 36.2 73.04 36.18 73.14C36.15 73.24 36.13 73.5 36.13 73.71C36.13 73.97 36.16 74.16 36.23 74.27C36.28 74.36 36.43 74.45 36.55 74.49C36.68 74.52 40.74 74.56 45.59 74.57L54.4 74.6C54.66 73.96 54.85 73.38 54.98 72.89C55.11 72.41 55.32 71.51 55.44 70.9C55.57 70.29 56 68.28 56.4 66.43C56.79 64.58 57.14 62.88 57.16 62.65C57.2 62.32 57.18 62.23 57.11 62.18C57.05 62.15 56.9 62.12 56.76 62.12C56.59 62.12 56.47 62.16 56.36 62.26C56.28 62.34 56.13 62.57 56.03 62.77C55.93 62.97 55.73 63.44 55.59 63.81C55.45 64.19 55.17 64.9 54.97 65.38C54.78 65.87 54.41 66.72 54.17 67.28C53.92 67.83 53.61 68.48 53.48 68.71C53.35 68.95 53.1 69.33 52.93 69.56C52.76 69.8 52.46 70.14 52.27 70.32C52.07 70.5 51.73 70.74 51.49 70.86C51.26 70.97 50.83 71.12 50.55 71.19C50.26 71.26 49.78 71.36 49.47 71.42C49.17 71.47 48.59 71.55 48.2 71.59C47.8 71.63 47.07 71.66 46.56 71.64C45.83 71.62 45.61 71.6 45.47 71.51C45.37 71.44 45.25 71.33 45.19 71.24C45.14 71.16 45.07 70.89 45.03 70.64C45 70.39 44.94 68.11 44.9 65.58C44.86 62.59 44.86 60.54 44.9 59.73C44.96 58.64 44.98 58.46 45.11 58.2C45.22 57.99 45.34 57.87 45.52 57.78C45.76 57.67 45.83 57.66 46.27 57.73C46.54 57.77 46.95 57.87 47.18 57.95C47.41 58.03 47.66 58.16 47.73 58.24C47.81 58.31 47.96 58.61 48.08 58.89C48.19 59.17 48.34 59.73 48.42 60.12C48.5 60.52 48.6 61.22 48.66 61.69C48.71 62.16 48.79 63.22 48.83 64.06L48.92 65.57C49.42 65.64 49.71 65.64 49.88 65.62C50.12 65.59 50.21 65.54 50.3 65.4C50.38 65.27 50.43 64.98 50.46 64.3C50.49 63.8 50.49 60.83 50.45 57.71C50.41 54.58 50.35 51.08 50.32 49.93C50.28 48.79 50.22 47.54 50.19 47.16C50.16 46.78 50.13 46.43 50.13 46.37C50.13 46.32 50.02 46.23 49.9 46.16C49.77 46.1 49.54 46.05 49.39 46.05C49.22 46.04 49.05 46.09 48.96 46.16C48.86 46.23 48.79 46.39 48.75 46.57C48.72 46.73 48.65 47.58 48.59 48.47C48.53 49.35 48.44 50.46 48.39 50.95C48.33 51.43 48.23 52.07 48.16 52.37C48.09 52.66 47.98 53.02 47.91 53.15C47.85 53.29 47.7 53.48 47.6 53.59C47.49 53.7 47.29 53.85 47.15 53.92C46.97 54.01 46.73 54.05 46.31 54.07C45.91 54.08 45.63 54.06 45.46 54C45.22 53.91 45.19 53.88 45.14 53.59C45.1 53.41 45.08 50.94 45.08 47.98C45.08 45.07 45.12 42.04 45.16 41.25C45.2 40.42 45.26 39.7 45.31 39.55C45.38 39.35 45.46 39.26 45.66 39.16C45.89 39.04 46.04 39.03 47.55 39.03C48.61 39.04 49.31 39.07 49.57 39.12C49.78 39.17 50.18 39.32 50.45 39.45C50.79 39.62 51.05 39.81 51.3 40.08C51.5 40.3 51.82 40.76 52.01 41.12C52.21 41.48 52.58 42.23 52.84 42.78C53.1 43.34 53.55 44.4 53.84 45.13C54.14 45.87 54.43 46.58 54.5 46.72C54.57 46.85 54.71 47.01 54.82 47.06C54.94 47.12 55.21 47.16 55.52 47.16C55.93 47.16 56.06 47.14 56.21 47.03C56.37 46.91 56.39 46.86 56.39 46.46C56.39 46.21 56.3 45.46 56.19 44.77C56.08 44.09 55.85 42.45 55.67 41.12C55.49 39.79 55.3 38.42 55.24 38.08C55.19 37.74 55.12 37.3 55.08 37.12L55.02 36.77C53.42 36.79 52.4 36.82 51.72 36.85Z" />
		<path class="shp0" d="M71.14 39.12C70.98 39.15 70.63 39.29 70.36 39.43C70.1 39.57 69.73 39.83 69.55 40.01C69.37 40.19 69.08 40.54 68.9 40.79C68.73 41.04 68.47 41.45 68.33 41.7C68.19 41.96 67.94 42.51 67.78 42.95C67.61 43.38 67.36 44.17 67.22 44.71C67.08 45.25 66.88 46.16 66.77 46.73C66.66 47.31 66.53 48.1 66.47 48.5C66.42 48.89 66.34 50.1 66.3 51.18C66.25 52.39 66.24 54.55 66.26 56.89C66.28 58.96 66.33 61.15 66.37 61.76C66.41 62.37 66.52 63.31 66.61 63.85C66.7 64.39 66.88 65.3 67 65.87C67.13 66.45 67.39 67.4 67.59 67.99C67.79 68.59 68.06 69.31 68.2 69.6C68.33 69.88 68.63 70.38 68.86 70.7C69.09 71.02 69.42 71.39 69.6 71.54C69.78 71.68 70.12 71.89 70.35 72C70.75 72.2 70.82 72.21 71.5 72.21C72.08 72.21 72.28 72.18 72.57 72.06C72.77 71.98 73.08 71.82 73.26 71.7C73.43 71.59 73.78 71.24 74.03 70.93C74.33 70.55 74.62 70.09 74.93 69.46C75.17 68.96 75.48 68.23 75.61 67.83C75.74 67.44 75.95 66.73 76.07 66.26C76.19 65.8 76.36 65.02 76.45 64.53C76.54 64.05 76.69 63.05 76.78 62.31C76.87 61.58 76.98 60.61 77.02 60.16C77.06 59.71 77.1 58.15 77.12 56.69C77.14 55.13 77.13 53.28 77.08 52.16C77.04 51.11 76.96 49.75 76.91 49.12C76.86 48.49 76.78 47.73 76.72 47.42C76.67 47.11 76.56 46.57 76.49 46.21C76.42 45.85 76.26 45.18 76.13 44.71C76.01 44.24 75.8 43.54 75.66 43.14C75.52 42.75 75.25 42.13 75.07 41.77C74.88 41.41 74.54 40.87 74.31 40.58C74.07 40.28 73.72 39.92 73.54 39.78C73.35 39.64 73 39.43 72.77 39.32C72.46 39.18 72.22 39.12 71.89 39.1C71.64 39.08 71.3 39.09 71.14 39.12Z" />
		<path class="shp2" d="M24.47 39.43C24.06 39.55 22.01 40.21 19.91 40.9C17.81 41.58 15.55 42.31 14.9 42.53L13.71 42.91L13.71 44.42C14.29 44.47 14.76 44.52 15.14 44.57C15.52 44.62 15.94 44.71 16.07 44.77L16.32 44.87C16.36 45.61 16.4 49.3 16.45 53.56C16.51 59.44 16.51 62.5 16.46 66.3C16.41 69.32 16.36 71.42 16.31 71.62C16.28 71.8 16.19 71.98 16.13 72.02C16.07 72.07 15.76 72.17 15.44 72.27C15.11 72.36 14.59 72.48 14.27 72.55L13.7 72.66C13.73 74.25 13.76 74.41 13.85 74.51C13.94 74.59 14.12 74.64 14.54 74.67C14.85 74.69 17.12 74.71 19.58 74.72C22.04 74.72 25.72 74.69 27.77 74.66C29.82 74.62 31.92 74.56 32.44 74.53C32.96 74.49 33.44 74.45 33.51 74.43C33.62 74.4 33.66 74.3 33.73 73.89C33.77 73.61 33.87 72.6 33.94 71.65C34.02 70.7 34.21 68.47 34.37 66.69C34.53 64.91 34.68 62.98 34.71 62.4C34.75 61.51 34.74 61.33 34.66 61.24C34.58 61.16 34.45 61.13 34.15 61.13C33.93 61.14 33.64 61.18 33.51 61.23C33.31 61.32 33.27 61.38 33.15 61.77C33.08 62.02 32.83 62.92 32.6 63.78C32.37 64.64 32.06 65.75 31.92 66.23C31.77 66.72 31.56 67.38 31.45 67.7C31.33 68.02 31.1 68.58 30.94 68.94C30.77 69.3 30.5 69.79 30.35 70.02C30.19 70.25 29.85 70.66 29.6 70.92L29.14 71.4C24.09 71.36 23.62 71.34 23.43 71.25C23.25 71.18 23.19 71.1 23.15 70.93C23.13 70.81 23.07 69.69 23.03 68.45C22.98 66.88 22.97 63.38 23 56.89C23.02 51.77 23.07 46.55 23.1 45.3C23.14 44.04 23.19 42.86 23.21 42.67L23.27 42.32C24.89 41.45 25.46 41.12 25.58 41.03C25.7 40.93 25.84 40.76 25.89 40.64C25.94 40.53 25.97 40.34 25.97 40.22C25.97 40.1 25.92 39.89 25.85 39.75C25.79 39.6 25.68 39.44 25.61 39.38C25.54 39.32 25.43 39.25 25.36 39.23C25.28 39.21 24.89 39.3 24.47 39.43Z" />
		<path class="shp1" d="M90.68 84.72C89.64 84.74 88.57 84.8 88.3 84.84C88.03 84.87 87.45 85.01 87 85.14C86.45 85.3 85.85 85.54 85.17 85.87C84.61 86.14 83.91 86.52 83.6 86.72C83.3 86.92 82.8 87.28 82.49 87.53C82.19 87.77 81.69 88.23 81.38 88.55C81.07 88.86 80.65 89.35 80.43 89.61C80.21 89.88 79.82 90.4 79.55 90.76C79.28 91.12 77.31 93.97 75.19 97.09C73.06 100.22 70.09 104.56 68.6 106.74C67.11 108.93 64.63 112.56 63.09 114.81C61.55 117.07 57.4 123.14 53.88 128.31C50.36 133.49 46.36 139.36 45 141.36C43.63 143.36 41.91 145.91 41.16 147.01C40.41 148.12 38.5 150.96 36.91 153.33C35.32 155.7 33.67 158.2 33.25 158.88C32.82 159.57 32.34 160.39 32.17 160.71C31.93 161.19 31.86 161.41 31.8 161.89C31.75 162.21 31.72 162.69 31.72 162.95C31.72 163.21 31.75 163.65 31.79 163.93C31.83 164.21 31.92 164.6 32 164.79C32.09 165.02 32.27 165.3 32.5 165.54C32.7 165.75 32.98 165.99 33.12 166.07C33.27 166.16 33.71 166.31 34.1 166.43C34.5 166.54 35.92 166.86 37.27 167.15C38.61 167.44 40.43 167.84 41.31 168.04C42.19 168.23 43.79 168.6 44.87 168.85C45.95 169.1 47.86 169.57 49.11 169.89C50.37 170.21 51.92 170.61 52.57 170.79C53.22 170.97 54.51 171.36 55.44 171.64C56.38 171.93 57.51 172.3 57.95 172.46C58.4 172.62 59.14 172.9 59.6 173.08C60.06 173.27 60.65 173.52 60.91 173.65L61.38 173.88C63.05 173.12 63.76 172.81 64.02 172.7C64.29 172.58 65.12 172.29 65.85 172.04C66.59 171.79 67.81 171.39 68.56 171.16C69.31 170.93 70.62 170.55 71.46 170.32C72.31 170.08 74.22 169.58 75.71 169.2C77.2 168.83 79.35 168.3 80.5 168.03C81.65 167.75 83.59 167.31 84.81 167.05C86.03 166.78 88.7 166.23 90.75 165.81C92.8 165.39 95.56 164.83 96.88 164.56C98.21 164.29 99.64 163.98 100.05 163.87C100.46 163.76 101.26 163.53 101.81 163.34C102.44 163.14 103.21 162.81 103.84 162.5C104.39 162.22 105.07 161.82 105.35 161.61C105.62 161.41 106.15 160.97 106.52 160.64C106.89 160.31 107.42 159.77 107.69 159.43C107.97 159.09 108.33 158.61 108.5 158.36C108.68 158.11 108.97 157.58 109.16 157.18C109.34 156.79 109.62 156.16 109.76 155.78C109.91 155.4 110.12 154.79 110.22 154.41C110.33 154.03 110.51 153.36 110.61 152.91C110.72 152.46 110.84 151.87 110.88 151.6C110.92 151.33 110.98 150.4 111.02 149.54C111.07 148.51 111.1 137.08 111.12 116.31L111.15 84.65C96.76 84.67 91.73 84.69 90.68 84.72Z" />
		<path class="shp0" d="M43.73 85.04C43.64 85.06 43.5 85.12 43.42 85.16C43.34 85.2 43.04 85.52 42.76 85.87C42.42 86.3 42.19 86.53 42.03 86.6C41.89 86.66 41.67 86.68 41.44 86.66C41.23 86.64 40.91 86.55 40.66 86.43C40.43 86.32 39.99 86.07 39.68 85.87C39.33 85.66 39.02 85.51 38.83 85.48C38.67 85.45 36.39 85.41 33.77 85.39L29.01 85.36C28.59 86 28.41 86.3 28.34 86.43C28.23 86.66 28.23 86.69 28.34 86.9C28.4 87.03 28.53 87.18 28.63 87.25C28.78 87.34 28.93 87.36 29.56 87.34C30.11 87.33 30.42 87.36 30.67 87.43C30.87 87.49 31.24 87.64 31.49 87.78C31.73 87.91 32.07 88.13 32.22 88.28C32.39 88.43 32.55 88.66 32.62 88.83C32.7 89.04 32.73 89.32 32.72 89.84C32.72 90.26 32.68 90.67 32.62 90.82C32.56 91 32.47 91.12 32.34 91.18C32.17 91.27 31.52 91.29 28 91.32C24.68 91.35 23.79 91.37 23.53 91.45C23.35 91.5 23.03 91.65 22.81 91.77C22.6 91.9 22.16 92.26 21.83 92.59C21.5 92.91 21.02 93.45 20.76 93.79C20.5 94.14 20.12 94.68 19.92 95C19.72 95.33 19.47 95.71 19.36 95.84C19.25 95.98 18.96 96.22 18.73 96.38C18.5 96.53 17.54 97.06 16.61 97.55C15.68 98.05 14.38 98.75 13.74 99.12C13.09 99.49 11.95 100.17 11.21 100.63C10.47 101.09 9.6 101.62 9.29 101.8C8.98 101.98 8.6 102.25 8.44 102.4C8.29 102.55 8.1 102.8 8.03 102.96C7.96 103.11 7.85 103.53 7.79 103.89C7.71 104.37 7.7 104.63 7.74 104.89C7.77 105.09 7.84 105.27 7.9 105.31C7.95 105.34 8.08 105.35 8.17 105.33C8.28 105.31 8.6 105.05 8.94 104.7C9.49 104.16 9.55 104.11 9.79 104.11C9.98 104.11 10.09 104.16 10.21 104.28C10.33 104.4 10.38 104.51 10.37 104.69C10.37 104.83 10.29 105.08 10.18 105.29C10.07 105.49 9.76 105.93 9.49 106.27C9.22 106.61 8.9 107.1 8.77 107.35C8.65 107.6 8.53 107.92 8.51 108.07C8.48 108.25 8.52 108.52 8.64 108.95C8.74 109.29 9 109.95 9.23 110.42C9.5 110.98 9.81 111.5 10.15 111.95C10.44 112.33 10.88 112.84 11.13 113.09C11.38 113.35 11.66 113.6 11.76 113.65C11.93 113.74 11.95 113.74 12.07 113.62C12.14 113.55 12.23 113.37 12.27 113.23C12.3 113.08 12.39 112.88 12.46 112.79C12.54 112.69 12.71 112.55 12.86 112.48C13 112.4 13.35 112.31 13.62 112.27C13.9 112.24 14.25 112.15 14.39 112.08C14.53 112.02 14.81 111.83 15.01 111.66C15.21 111.5 15.55 111.23 15.76 111.06C15.98 110.9 16.37 110.65 16.64 110.53C17.02 110.35 17.23 110.29 17.59 110.27C17.97 110.25 18.08 110.27 18.26 110.38C18.37 110.46 18.58 110.66 18.72 110.83C18.85 111 19.04 111.31 19.14 111.51C19.24 111.72 19.37 112.09 19.42 112.33C19.49 112.62 19.52 112.97 19.5 113.36C19.48 113.89 19.46 114.01 19.24 114.44C19.1 114.71 18.81 115.16 18.58 115.45C18.35 115.73 18 116.09 17.81 116.24C17.62 116.39 17.37 116.55 17.26 116.61C17.15 116.66 16.93 116.74 16.77 116.79C16.52 116.86 16.42 116.85 16.02 116.73C15.7 116.64 15.51 116.53 15.36 116.38C15.25 116.26 14.99 115.93 14.8 115.64C14.6 115.35 14.35 115.07 14.24 115.01C14.06 114.91 14.01 114.9 13.82 114.98C13.7 115.03 13.45 115.21 13.25 115.37C13.05 115.54 12.84 115.68 12.78 115.68C12.71 115.68 12.57 115.76 12.46 115.86C12.34 115.95 12.21 116.12 12.15 116.23C12.08 116.37 12.07 116.54 12.09 116.82C12.11 117.03 12.32 117.9 12.55 118.75C12.78 119.59 13.02 120.53 13.09 120.84C13.15 121.14 13.25 121.49 13.31 121.62C13.38 121.75 13.5 121.91 13.58 121.99C13.67 122.07 13.87 122.18 14.03 122.24C14.19 122.3 14.43 122.35 14.55 122.35C14.68 122.35 14.91 122.3 15.08 122.24C15.24 122.18 15.69 121.94 16.09 121.7C16.48 121.46 17 121.2 17.23 121.12C17.46 121.04 17.92 120.94 18.24 120.9C18.59 120.85 19.08 120.84 19.45 120.86C19.79 120.88 20.47 120.96 20.95 121.04C21.43 121.11 22.15 121.21 22.55 121.26C22.94 121.31 23.78 121.38 24.41 121.42C25.04 121.46 25.99 121.52 26.53 121.56C27.07 121.59 27.74 121.65 28.03 121.69C28.41 121.74 28.61 121.81 28.77 121.92C28.88 122.01 29 122.16 29.02 122.26C29.05 122.38 29.02 122.51 28.93 122.66C28.86 122.79 28.64 123 28.45 123.13C28.25 123.26 27.55 123.66 26.89 124.01C26.22 124.35 25.37 124.82 25 125.03C24.62 125.25 24.06 125.6 23.76 125.81C23.45 126.01 23.03 126.34 22.82 126.53C22.61 126.72 22.39 126.97 22.33 127.07C22.26 127.21 22.23 127.46 22.23 127.96C22.22 128.43 22.26 128.74 22.33 128.97C22.4 129.15 22.56 129.43 22.7 129.59C22.84 129.75 23.05 129.95 23.17 130.03C23.3 130.11 23.47 130.17 23.56 130.18C23.66 130.18 23.84 130.08 24.02 129.93C24.18 129.79 24.38 129.54 24.46 129.39C24.54 129.23 24.63 128.94 24.66 128.74C24.7 128.54 24.77 128.36 24.81 128.33C24.86 128.31 24.99 128.28 25.09 128.28C25.2 128.28 25.54 128.4 25.84 128.55C26.15 128.7 26.77 129.05 27.22 129.34C27.66 129.63 28.24 129.98 28.49 130.12C28.74 130.26 29 130.37 29.08 130.37C29.15 130.37 29.31 130.31 29.43 130.23C29.58 130.13 29.67 130 29.71 129.85C29.75 129.7 29.72 129.23 29.63 128.43C29.56 127.77 29.5 127.01 29.5 126.73C29.5 126.45 29.54 126.06 29.6 125.85C29.65 125.64 29.75 125.36 29.83 125.21C29.92 125.02 30.04 124.91 30.28 124.79C30.46 124.7 30.79 124.6 31.02 124.56C31.24 124.53 31.54 124.52 31.68 124.54C31.82 124.57 31.95 124.62 31.98 124.66C32.01 124.69 32.06 124.88 32.1 125.08C32.14 125.28 32.22 125.96 32.27 126.6C32.33 127.24 32.4 127.88 32.44 128.04C32.47 128.19 32.55 128.37 32.62 128.43C32.68 128.5 32.92 128.57 33.19 128.62C33.44 128.66 33.75 128.72 33.87 128.77C34.02 128.81 34.13 128.91 34.19 129.04C34.25 129.15 34.31 129.63 34.34 130.21C34.37 130.75 34.38 131.62 34.35 132.15C34.3 132.98 34.28 133.13 34.17 133.24C34.06 133.36 33.85 133.39 32.8 133.51C32.11 133.58 31.13 133.68 30.61 133.74C30.09 133.8 29.41 133.9 29.11 133.96C28.8 134.03 28.45 134.13 28.32 134.19C28.2 134.25 27.91 134.42 27.69 134.57C27.4 134.76 27.24 134.93 27.15 135.11C27.08 135.25 26.98 135.57 26.93 135.83C26.88 136.08 26.77 136.69 26.7 137.2C26.63 137.7 26.54 138.44 26.5 138.83C26.47 139.23 26.46 139.65 26.48 139.77C26.51 139.89 26.6 140.05 26.69 140.11C26.78 140.18 26.96 140.26 27.08 140.28C27.21 140.3 27.39 140.3 27.48 140.28C27.57 140.26 27.71 140.18 27.8 140.1C27.89 140.03 28.04 139.95 28.13 139.93C28.22 139.91 28.38 139.94 28.5 140C28.62 140.06 28.81 140.24 28.93 140.41C29.04 140.59 29.26 140.84 29.4 140.99C29.58 141.17 29.76 141.28 29.97 141.33C30.14 141.38 30.42 141.41 30.59 141.41C30.86 141.42 30.96 141.37 31.33 141.11C31.56 140.94 32.19 140.37 32.73 139.84C33.27 139.32 33.81 138.83 33.94 138.76C34.1 138.68 34.39 138.63 34.95 138.59C35.38 138.56 35.88 138.5 36.06 138.44C36.24 138.39 36.49 138.27 36.61 138.18C36.74 138.09 36.95 137.87 37.09 137.7C37.22 137.53 37.55 137.01 37.82 136.54C38.08 136.08 38.42 135.54 38.56 135.35C38.79 135.06 38.86 135.01 39.04 135.01C39.16 135.01 39.4 135.07 39.58 135.14C39.76 135.2 40.09 135.33 40.32 135.43C40.65 135.57 40.76 135.59 40.94 135.53C41.05 135.5 41.27 135.39 41.42 135.29C41.58 135.19 41.74 135.03 41.79 134.94C41.85 134.85 41.94 134.52 42 134.19C42.06 133.87 42.18 133.44 42.27 133.25C42.36 133.05 42.51 132.8 42.6 132.7C42.7 132.6 42.99 132.38 43.24 132.21C43.49 132.04 43.99 131.74 44.35 131.55C44.71 131.36 45.22 131.06 45.49 130.89C45.76 130.72 46.17 130.38 46.4 130.13C46.64 129.89 46.88 129.58 46.94 129.44C47 129.31 47.06 129.06 47.06 128.89C47.06 128.72 46.99 128.09 46.91 127.5C46.78 126.54 46.78 126.36 46.85 125.87C46.89 125.55 47.03 125.06 47.16 124.72C47.29 124.4 47.68 123.55 48.02 122.83C48.36 122.11 48.79 121.13 48.98 120.64C49.17 120.16 49.44 119.36 49.57 118.88C49.7 118.39 49.87 117.88 49.95 117.73C50.04 117.57 50.14 117.47 50.24 117.46C50.32 117.45 50.5 117.5 50.65 117.57C50.79 117.64 50.95 117.77 51.01 117.85C51.09 117.97 51.09 118.05 51.04 118.29C51 118.45 50.75 119.21 50.48 119.97C50.21 120.73 49.97 121.47 49.94 121.61C49.91 121.8 49.92 121.9 49.99 121.98C50.05 122.03 50.19 122.1 50.32 122.12C50.47 122.14 50.62 122.12 50.78 122.04C50.9 121.98 51.16 121.78 51.36 121.59C51.55 121.41 51.96 120.97 52.27 120.61C52.58 120.25 53.1 119.6 53.43 119.17C53.75 118.74 54.22 118.08 54.47 117.7C54.72 117.32 55 116.84 55.08 116.62C55.16 116.41 55.24 116.04 55.26 115.81C55.28 115.55 55.26 115.28 55.21 115.12C55.17 114.98 55.02 114.71 54.89 114.53C54.76 114.35 54.48 114.02 54.27 113.78C54.06 113.55 53.8 113.23 53.7 113.06C53.6 112.9 53.51 112.68 53.51 112.57C53.51 112.44 53.59 112.29 53.77 112.08L54.02 111.79L56.91 111.82C57.3 111.47 57.41 111.29 57.47 111.07C57.52 110.89 57.6 110.47 57.66 110.12C57.71 109.78 57.81 108.84 57.89 108.03C57.96 107.23 58.02 106.4 58.02 106.21C58.02 106.01 58.04 105.81 58.07 105.77C58.1 105.73 58.43 105.68 58.84 105.66C59.23 105.64 59.65 105.6 59.77 105.57C59.89 105.54 60.02 105.47 60.05 105.4C60.08 105.34 60.15 105 60.2 104.65C60.26 104.3 60.36 103.31 60.44 102.45C60.51 101.59 60.57 100.51 60.58 100.07C60.58 99.3 60.57 99.22 60.38 98.74C60.22 98.34 60.17 98.14 60.17 97.76C60.17 97.49 60.21 97.24 60.25 97.17C60.33 97.05 60.35 97.05 60.71 97.15C60.92 97.21 61.19 97.26 61.31 97.26C61.47 97.26 61.59 97.2 61.74 97.06C61.87 96.93 61.94 96.8 61.94 96.67C61.94 96.56 61.89 96.35 61.83 96.2C61.77 96.04 61.64 95.8 61.55 95.67C61.46 95.53 61.19 95.29 60.96 95.13C60.72 94.97 60.3 94.76 60.01 94.65C59.72 94.55 59.31 94.41 59.1 94.36C58.88 94.3 58.25 94.18 57.69 94.09C57.14 94 56.46 93.86 56.19 93.79C55.92 93.71 55.59 93.57 55.44 93.47C55.3 93.37 55 93.1 54.77 92.87C54.55 92.64 54.23 92.28 54.07 92.06C53.91 91.85 53.78 91.64 53.78 91.59C53.78 91.55 53.94 91.31 54.13 91.07C54.33 90.83 54.62 90.44 54.79 90.2C55.01 89.9 55.1 89.7 55.12 89.48C55.15 89.26 55.12 89.12 55.01 88.9C54.9 88.7 54.73 88.51 54.46 88.33C54.25 88.18 53.59 87.81 53.01 87.51C52.02 87 51.92 86.97 51.54 86.97C51.21 86.97 51.06 87.01 50.74 87.17C50.53 87.28 50.03 87.59 49.63 87.85C49.24 88.11 48.75 88.4 48.56 88.5C48.36 88.6 48.04 88.74 47.84 88.79C47.56 88.88 47.42 88.89 47.22 88.84C47.08 88.8 46.85 88.69 46.71 88.6C46.58 88.51 46.43 88.36 46.38 88.26C46.33 88.16 46.22 87.77 46.14 87.39C46.06 87.02 45.93 86.41 45.84 86.05C45.75 85.7 45.64 85.34 45.6 85.27C45.55 85.2 45.37 85.1 45.21 85.06C45.04 85.01 44.67 84.98 44.4 84.98C44.12 84.99 43.82 85.01 43.73 85.04Z" />
		<path fill-rule="evenodd" class="shp2" d="M37.2 88.38C37.25 88.38 37.41 88.4 37.54 88.44C37.73 88.49 37.82 88.56 37.91 88.75C37.98 88.88 38.12 89.07 38.24 89.17C38.35 89.27 38.52 89.37 38.62 89.4C38.72 89.42 39.01 89.42 39.26 89.41C39.63 89.39 39.82 89.33 40.27 89.11C40.57 88.96 40.98 88.74 41.54 88.42L41.83 88.57C42.01 88.67 42.17 88.82 42.25 88.96C42.35 89.16 42.36 89.3 42.33 90.01C42.31 90.63 42.26 90.95 42.14 91.35C42.03 91.68 41.86 92.03 41.65 92.33C41.48 92.58 41.22 92.88 41.08 93.01C40.94 93.13 40.68 93.3 40.5 93.38C40.32 93.46 40.07 93.53 39.94 93.53C39.82 93.54 39.51 93.47 39.26 93.4C39.01 93.32 38.62 93.17 38.41 93.06C38.19 92.95 37.88 92.77 37.72 92.67C37.56 92.56 37.27 92.32 37.08 92.14C36.89 91.95 36.64 91.64 36.52 91.44C36.39 91.25 36.25 90.89 36.19 90.66C36.14 90.43 36.09 90.04 36.09 89.81C36.09 89.5 36.13 89.3 36.24 89.06C36.33 88.88 36.45 88.69 36.52 88.63C36.58 88.58 36.74 88.5 36.87 88.46C37 88.41 37.15 88.38 37.2 88.38ZM46.29 90.14C46.37 90.14 46.63 90.17 46.86 90.2C47.09 90.24 47.56 90.37 47.9 90.48C48.39 90.65 48.61 90.77 49.04 91.12C49.33 91.35 49.82 91.79 50.12 92.1C50.43 92.41 50.87 92.89 51.1 93.18C51.33 93.46 51.57 93.81 51.63 93.96C51.69 94.1 51.77 94.47 51.81 94.77C51.85 95.08 51.94 96.21 52.01 97.29C52.08 98.37 52.19 99.59 52.24 100.02C52.3 100.46 52.44 101.08 52.57 101.49C52.69 101.87 52.88 102.32 52.98 102.48C53.09 102.64 53.36 102.96 53.59 103.18C53.82 103.4 54.18 103.74 54.39 103.93C54.7 104.21 54.78 104.33 54.83 104.57C54.86 104.73 54.91 105.48 54.98 107.61L54.82 107.72C54.73 107.79 54.59 107.84 54.51 107.84C54.43 107.84 54.27 107.79 54.15 107.73C54.04 107.67 53.65 107.37 53.29 107.06C52.94 106.75 52.11 105.94 51.45 105.26C50.8 104.58 50.11 103.83 49.93 103.61C49.75 103.38 49.57 103.09 49.54 102.96C49.5 102.82 49.43 102.34 49.37 101.89C49.32 101.45 49.24 100.96 49.2 100.82C49.16 100.67 49.07 100.44 49.01 100.31C48.93 100.15 48.8 100.03 48.65 99.97C48.53 99.91 48.35 99.87 48.25 99.87C48.15 99.87 47.95 99.81 47.81 99.74C47.66 99.67 47.32 99.41 46.53 98.69L45.93 98.69C45.6 98.69 45.19 98.67 45.02 98.64C44.82 98.61 44.65 98.53 44.51 98.4C44.39 98.29 44.23 98.05 44.14 97.86C44.06 97.67 43.93 97.22 43.85 96.85C43.78 96.48 43.7 95.87 43.68 95.49C43.65 94.81 43.65 94.8 43.84 94.51C43.95 94.35 44.18 94.12 44.36 94.01C44.53 93.89 44.75 93.78 44.85 93.76C44.96 93.74 45.14 93.78 45.31 93.87C45.46 93.95 45.73 94.12 45.91 94.27C46.09 94.41 46.67 94.91 47.19 95.39C47.71 95.87 48.33 96.41 48.57 96.59C48.85 96.81 49.08 96.93 49.19 96.93C49.29 96.93 49.53 96.89 49.72 96.83C49.94 96.77 50.1 96.67 50.19 96.55C50.26 96.46 50.32 96.3 50.32 96.21C50.32 96.12 50.23 95.86 50.11 95.62C49.97 95.33 49.75 95.04 49.38 94.67C49.09 94.38 48.63 94 48.36 93.82C48.09 93.63 47.46 93.28 46.96 93.02C46.46 92.77 45.96 92.49 45.86 92.41C45.71 92.28 45.67 92.18 45.62 91.77C45.57 91.39 45.58 91.19 45.65 90.89C45.72 90.6 45.8 90.45 45.94 90.32C46.05 90.22 46.21 90.14 46.29 90.14ZM24.28 97.78C24.7 97.81 24.97 97.86 25.13 97.94C25.25 98.01 25.51 98.23 25.7 98.43C25.9 98.63 26.11 98.91 26.18 99.05C26.31 99.31 26.31 99.32 26.19 99.43C26.1 99.52 25.9 99.56 25.42 99.61C25.06 99.64 24.3 99.67 23.72 99.67C23.15 99.67 22.37 99.64 21.99 99.61C21.59 99.57 21.28 99.51 21.23 99.46C21.19 99.42 21.11 99.24 21.07 99.07C20.99 98.79 20.99 98.75 21.12 98.58C21.19 98.48 21.4 98.3 21.57 98.18C21.75 98.07 22.01 97.94 22.16 97.9C22.3 97.86 22.7 97.81 23.04 97.79C23.38 97.76 23.94 97.76 24.28 97.78ZM39.69 100.27C39.83 100.3 40.03 100.37 40.14 100.42C40.25 100.48 40.47 100.65 40.63 100.8C40.8 100.95 41 101.2 41.09 101.34C41.17 101.48 41.27 101.74 41.31 101.91C41.35 102.08 41.36 102.3 41.34 102.4C41.32 102.5 41.25 102.65 41.18 102.73C41.1 102.82 40.98 102.87 40.86 102.87C40.75 102.87 40.51 102.81 40.32 102.74C40.13 102.66 39.78 102.48 39.55 102.32C39.32 102.17 39.02 101.95 38.88 101.82C38.71 101.67 38.61 101.51 38.56 101.31C38.51 101.1 38.51 100.94 38.56 100.77C38.61 100.62 38.71 100.48 38.82 100.41C38.91 100.35 39.09 100.28 39.21 100.26C39.33 100.24 39.55 100.25 39.69 100.27ZM47.22 102.76C47.33 102.79 47.48 102.85 47.56 102.91C47.64 102.96 47.79 103.17 47.88 103.38C48 103.65 48.05 103.86 48.05 104.11C48.05 104.31 48.01 104.5 47.97 104.54C47.93 104.58 47.83 104.57 47.69 104.5C47.58 104.44 47.34 104.24 47.17 104.04C47.01 103.85 46.79 103.52 46.7 103.31C46.57 103.03 46.55 102.92 46.6 102.85C46.64 102.79 46.75 102.74 46.85 102.73C46.94 102.72 47.11 102.73 47.22 102.76ZM44.28 102.92C44.35 102.94 44.54 103.03 44.71 103.12C44.87 103.21 45.22 103.51 45.49 103.78C45.83 104.12 46.06 104.42 46.2 104.7C46.31 104.94 46.46 105.41 46.53 105.75C46.6 106.09 46.66 106.51 46.66 106.68C46.66 106.9 46.63 107.03 46.53 107.12C46.46 107.19 46.34 107.25 46.26 107.25C46.18 107.25 45.93 107.13 45.72 106.97C45.5 106.81 45 106.34 44.6 105.94C44.21 105.53 43.75 105.02 43.59 104.8C43.42 104.59 43.24 104.31 43.18 104.18C43.1 104.04 43.08 103.89 43.11 103.79C43.13 103.7 43.21 103.53 43.28 103.41C43.34 103.3 43.49 103.15 43.6 103.09C43.71 103.03 43.88 102.96 43.98 102.94C44.07 102.91 44.21 102.9 44.28 102.92ZM37.92 104.46C38.35 104.48 38.45 104.51 38.76 104.71C38.96 104.83 39.27 105.11 39.47 105.32C39.66 105.54 39.89 105.87 39.98 106.06C40.07 106.26 40.15 106.59 40.18 106.84C40.21 107.23 40.2 107.31 40.08 107.46C39.97 107.6 39.89 107.64 39.7 107.64C39.55 107.64 39.33 107.57 39.13 107.45C38.95 107.35 38.57 107.06 38.28 106.82C38 106.57 37.62 106.25 37.44 106.11C37.25 105.97 36.96 105.81 36.78 105.75C36.54 105.68 36.41 105.59 36.3 105.42C36.22 105.3 36.16 105.15 36.17 105.1C36.18 105.05 36.3 104.92 36.44 104.81C36.6 104.68 36.84 104.57 37.06 104.52C37.26 104.48 37.65 104.45 37.92 104.46ZM31.92 105.85C32.02 105.9 32.38 106.21 32.71 106.53C33.05 106.85 33.4 107.14 33.5 107.18C33.62 107.23 33.91 107.23 34.44 107.19C34.87 107.15 35.34 107.15 35.5 107.17C35.7 107.2 35.83 107.27 35.95 107.41C36.04 107.52 36.17 107.74 36.24 107.9C36.32 108.11 36.35 108.28 36.33 108.46C36.31 108.6 36.22 108.83 36.13 108.96C36.03 109.1 35.86 109.25 35.73 109.31C35.54 109.39 35.39 109.39 34.87 109.34C34.52 109.3 33.89 109.23 33.48 109.17C33.07 109.12 32.48 109.01 32.18 108.94C31.87 108.87 31.53 108.76 31.42 108.69C31.32 108.62 31.18 108.46 31.12 108.32C31.05 108.18 30.97 107.86 30.93 107.61C30.9 107.36 30.88 107.02 30.91 106.86C30.93 106.7 31.01 106.46 31.07 106.34C31.14 106.21 31.32 106.03 31.46 105.93C31.71 105.76 31.74 105.76 31.92 105.85ZM21.04 107.71C21.12 107.71 21.28 107.82 21.41 107.95C21.54 108.09 21.88 108.53 22.16 108.94C22.45 109.36 22.84 109.87 23.04 110.08C23.24 110.29 23.51 110.53 23.66 110.62C23.8 110.7 24.08 110.81 24.28 110.86C24.48 110.92 25.03 111.05 25.52 111.16C26 111.26 26.72 111.44 27.1 111.55C27.49 111.67 27.99 111.85 28.21 111.96C28.43 112.07 28.74 112.25 28.88 112.34C29.06 112.46 29.19 112.63 29.29 112.86C29.37 113.04 29.43 113.31 29.43 113.46C29.43 113.66 29.39 113.76 29.22 113.94C29.07 114.09 28.91 114.18 28.67 114.23C28.48 114.27 28.02 114.3 27.66 114.3C27.29 114.3 26.72 114.27 26.4 114.24C26.08 114.2 25.58 114.11 25.29 114.03C25 113.96 24.62 113.82 24.44 113.73C24.26 113.64 23.97 113.45 23.79 113.32C23.61 113.18 23.36 112.94 23.23 112.79C23.1 112.63 22.8 112.23 22.55 111.89C22.31 111.55 21.99 111.06 21.84 110.81C21.7 110.56 21.48 110.13 21.35 109.86C21.23 109.59 21.05 109.12 20.94 108.82C20.84 108.51 20.75 108.17 20.74 108.06C20.73 107.95 20.77 107.83 20.82 107.79C20.87 107.74 20.97 107.71 21.04 107.71ZM41.08 109.03C41.33 109.05 41.61 109.11 41.83 109.22C42.03 109.31 42.31 109.48 42.45 109.61C42.68 109.81 42.7 109.85 42.67 110.09C42.65 110.24 42.54 110.57 42.42 110.84C42.31 111.11 42.03 111.64 41.82 112.02C41.6 112.4 41.33 112.84 41.23 113C41.12 113.16 40.88 113.48 40.7 113.7C40.52 113.93 40.29 114.14 40.2 114.18C40.11 114.21 39.91 114.25 39.75 114.25C39.57 114.25 39.35 114.2 39.19 114.13C39.05 114.05 38.78 113.87 38.6 113.72C38.42 113.56 38.19 113.39 38.08 113.34C37.95 113.27 37.58 113.22 36.91 113.19C36.37 113.17 35.86 113.12 35.78 113.07C35.66 113.01 35.63 112.94 35.64 112.72C35.64 112.57 35.66 112.25 35.7 112.02C35.73 111.78 35.82 111.4 35.89 111.17C35.99 110.83 36.06 110.73 36.2 110.66C36.3 110.61 36.81 110.41 37.33 110.22C37.85 110.03 38.59 109.75 38.96 109.6C39.34 109.45 39.88 109.25 40.17 109.17C40.52 109.07 40.82 109.02 41.08 109.03ZM46.45 109.41C46.57 109.41 46.74 109.44 46.84 109.48C46.94 109.51 47.11 109.62 47.21 109.72C47.31 109.82 47.53 110.12 47.69 110.39C47.86 110.65 48.07 110.98 48.16 111.1C48.25 111.23 48.58 111.63 48.89 111.99C49.2 112.34 49.54 112.79 49.66 112.97C49.77 113.15 49.86 113.34 49.86 113.41C49.86 113.47 49.81 113.6 49.75 113.7C49.69 113.8 49.47 114.14 49.26 114.45C49.05 114.77 48.85 115.15 48.82 115.3C48.78 115.45 48.65 115.92 48.52 116.33C48.39 116.74 48.16 117.33 48.01 117.63C47.83 118 47.65 118.27 47.44 118.45C47.26 118.61 46.93 118.8 46.61 118.93C46.29 119.05 46.04 119.2 45.98 119.28C45.93 119.37 45.86 119.65 45.82 119.92C45.79 120.19 45.74 120.82 45.72 121.33C45.69 121.83 45.63 122.45 45.58 122.7C45.5 123.09 45.41 123.27 44.91 124C44.6 124.47 44.24 125.06 44.12 125.31C44 125.56 43.77 126.13 43.6 126.58C43.43 127.03 43.21 127.55 43.12 127.74C43.02 127.93 42.83 128.21 42.7 128.35C42.49 128.58 42.42 128.61 42.19 128.61C42.05 128.61 41.52 128.53 41.02 128.44C40.48 128.35 39.86 128.28 39.5 128.28C39.08 128.28 38.84 128.31 38.69 128.39C38.57 128.45 38.22 128.68 37.92 128.9C37.61 129.13 37.28 129.35 37.17 129.41C37.06 129.46 36.86 129.52 36.73 129.55C36.58 129.57 36.42 129.56 36.32 129.51C36.19 129.44 36.15 129.35 36.09 129.03C36.06 128.82 36 128.26 35.96 127.79C35.93 127.33 35.87 126.05 35.83 124.95C35.79 123.86 35.78 122.77 35.8 122.53C35.82 122.3 35.87 122.01 35.91 121.88C35.95 121.76 36.05 121.57 36.15 121.47C36.24 121.37 36.42 121.25 36.55 121.2C36.67 121.15 37.01 121.06 37.3 121C37.62 120.94 37.96 120.82 38.18 120.69C38.38 120.57 38.91 120.11 39.36 119.66C39.81 119.21 40.55 118.39 41 117.83C41.45 117.27 41.86 116.78 41.92 116.74C42.01 116.67 42.04 116.67 42.08 116.74C42.1 116.78 42.13 117.23 42.17 118.65L39.95 120.87C38.74 122.09 37.69 123.19 37.63 123.3C37.57 123.42 37.53 123.62 37.53 123.76C37.53 123.97 37.59 124.05 37.94 124.4C38.16 124.61 38.55 124.94 38.8 125.13C39.05 125.31 39.48 125.59 40.24 125.99L40.56 125.79C40.74 125.68 41.25 125.23 41.69 124.8C42.14 124.36 42.68 123.78 42.91 123.51C43.13 123.24 43.38 122.92 43.46 122.8C43.56 122.63 43.6 122.46 43.6 122.18C43.6 121.96 43.54 121.53 43.46 121.23C43.39 120.92 43.28 120.44 43.23 120.15C43.18 119.86 43.14 119.42 43.14 119.17C43.14 118.92 43.18 118.57 43.23 118.39C43.29 118.21 43.41 117.98 43.51 117.89C43.61 117.79 43.87 117.63 44.09 117.54C44.3 117.44 44.65 117.24 44.87 117.08C45.08 116.92 45.5 116.55 45.8 116.25C46.09 115.95 46.43 115.53 46.56 115.32C46.69 115.1 46.84 114.75 46.9 114.53C47 114.17 47 114.11 46.89 113.65C46.83 113.38 46.55 112.57 46.26 111.84C45.98 111.11 45.72 110.38 45.68 110.21C45.63 109.95 45.64 109.87 45.73 109.74C45.79 109.66 45.93 109.55 46.04 109.5C46.15 109.45 46.34 109.41 46.45 109.41Z" />
		<path class="shp3" d="M80.5 114.48C80.32 114.49 79.78 114.56 79.3 114.63C78.81 114.71 78.17 114.81 77.86 114.86C77.56 114.92 76.88 115.06 76.36 115.19C75.84 115.31 75.08 115.53 74.66 115.67C74.25 115.81 73.57 116.06 73.16 116.23C72.75 116.4 71.97 116.76 71.43 117.04C70.89 117.32 70.1 117.77 69.67 118.03C69.24 118.29 68.59 118.72 68.23 119C67.87 119.27 67.32 119.72 66.99 119.99C66.67 120.27 66.11 120.8 65.75 121.17C65.38 121.54 64.78 122.19 64.42 122.6C64.05 123.01 63.48 123.72 63.16 124.17C62.83 124.62 62.41 125.22 62.23 125.51C62.05 125.79 61.64 126.48 61.34 127.04C61.03 127.6 60.64 128.41 60.47 128.84C60.3 129.27 60.06 129.9 59.94 130.24C59.82 130.58 59.67 131.07 59.59 131.32C59.52 131.57 59.35 132.38 59.2 133.12C59.06 133.85 58.9 134.79 58.86 135.21C58.8 135.69 58.77 136.71 58.77 138.05C58.78 139.27 58.81 140.43 58.86 140.86C58.9 141.25 59.02 141.96 59.11 142.42C59.2 142.89 59.38 143.7 59.52 144.22C59.66 144.74 59.91 145.53 60.08 145.98C60.25 146.43 60.53 147.12 60.71 147.52C60.89 147.91 61.16 148.49 61.32 148.79C61.47 149.1 61.85 149.77 62.16 150.29C62.48 150.81 62.83 151.37 62.94 151.53C63.05 151.7 63.38 152.14 63.68 152.51C63.99 152.89 64.58 153.58 65 154.05C65.42 154.52 66.06 155.15 66.41 155.46C66.77 155.77 67.34 156.24 67.68 156.51C68.02 156.78 68.64 157.22 69.05 157.49C69.46 157.76 70.09 158.15 70.45 158.36C70.81 158.57 71.63 159 72.28 159.31C72.93 159.62 73.69 159.97 73.98 160.08C74.26 160.19 74.7 160.35 74.96 160.42C75.21 160.5 75.84 160.66 76.36 160.78C76.88 160.91 77.64 161.06 78.06 161.13C78.47 161.2 79.09 161.3 79.43 161.34C79.83 161.4 80.78 161.43 82.17 161.43C83.85 161.43 84.45 161.4 85.04 161.31C85.45 161.25 86.08 161.14 86.44 161.07C86.8 160.99 87.43 160.85 87.85 160.74C88.26 160.64 88.98 160.44 89.44 160.3C89.91 160.15 90.63 159.89 91.04 159.71C91.46 159.53 92.09 159.25 92.45 159.08C92.81 158.91 93.42 158.58 93.82 158.34C94.21 158.1 94.74 157.78 94.99 157.61C95.24 157.45 95.76 157.08 96.13 156.8C96.51 156.51 97.07 156.07 97.37 155.82C97.68 155.57 98.28 155.01 98.71 154.58C99.14 154.14 99.79 153.41 100.15 152.94C100.51 152.47 101 151.81 101.24 151.47C101.47 151.13 101.88 150.5 102.14 150.07C102.4 149.63 102.83 148.87 103.09 148.37C103.34 147.86 103.7 147.07 103.88 146.6C104.06 146.14 104.39 145.12 104.61 144.35C104.83 143.58 105.05 142.75 105.1 142.52C105.15 142.29 105.23 141.82 105.28 141.48C105.34 141.03 105.37 140.08 105.37 138.15C105.36 136.45 105.33 135.15 105.28 134.68C105.24 134.27 105.13 133.56 105.04 133.12C104.95 132.67 104.74 131.89 104.57 131.38C104.41 130.88 104.1 130 103.89 129.43C103.67 128.85 103.36 128.12 103.2 127.79C103.04 127.47 102.76 126.94 102.57 126.62C102.39 126.29 102.05 125.73 101.82 125.38C101.59 125.02 101.25 124.52 101.07 124.27C100.89 124.01 100.56 123.59 100.35 123.32C100.13 123.05 99.42 122.29 98.78 121.63C98.13 120.97 97.35 120.21 97.05 119.96C96.74 119.7 96.13 119.21 95.68 118.88C95.23 118.55 94.54 118.08 94.14 117.84C93.75 117.61 92.9 117.15 92.25 116.82C91.6 116.49 90.69 116.07 90.23 115.89C89.76 115.71 88.97 115.45 88.47 115.32C87.96 115.19 87.23 115.02 86.83 114.95C86.44 114.88 85.76 114.78 85.33 114.73C84.9 114.67 83.98 114.59 83.28 114.53C82.58 114.48 81.74 114.44 81.42 114.45C81.09 114.45 80.68 114.47 80.5 114.48Z" />
		<path class="shp1" d="M80.73 115.74C79.96 115.77 79.17 115.81 78.97 115.84C78.77 115.86 78.11 116 77.5 116.14C76.89 116.28 76.07 116.49 75.67 116.6C75.28 116.71 74.74 116.88 74.47 116.98C74.2 117.08 73.84 117.23 73.68 117.31C73.52 117.39 73.29 117.52 73.18 117.61C73.04 117.71 72.86 117.97 72.68 118.34C72.52 118.65 71.85 120.11 71.18 121.57C70.14 123.84 69.98 124.25 70.04 124.35C70.09 124.41 70.51 124.89 70.97 125.41C71.44 125.93 72.08 126.63 72.41 126.96L73 127.57C73.81 127.56 74.79 127.52 75.71 127.47C76.62 127.41 78.12 127.33 79.04 127.27C79.95 127.22 80.93 127.14 81.22 127.1C81.63 127.04 81.78 126.99 81.93 126.85C82.03 126.76 82.42 126.34 82.78 125.93C83.15 125.52 83.82 124.72 84.27 124.17C84.72 123.61 85.3 122.86 85.56 122.5C85.82 122.14 86.08 121.75 86.15 121.62C86.25 121.43 86.25 121.36 86.19 121.16C86.15 121.04 85.95 120.68 85.75 120.38C85.54 120.07 85.12 119.46 84.8 119.01C84.48 118.56 84.14 118.03 84.03 117.83C83.89 117.55 83.86 117.43 83.89 117.28C83.92 117.16 84.13 116.9 84.42 116.61C84.71 116.33 84.91 116.08 84.91 116C84.91 115.93 84.86 115.86 84.79 115.84C84.73 115.81 84.3 115.77 83.83 115.74C83.37 115.71 82.79 115.68 82.56 115.69C82.33 115.69 81.5 115.72 80.73 115.74Z" />
		<path class="shp2" d="M32.96 117.7C32.83 117.76 32.67 117.89 32.59 117.97C32.51 118.06 32.33 118.35 32.18 118.62C32.04 118.88 31.79 119.43 31.63 119.82C31.47 120.22 31.24 120.87 31.11 121.28C30.98 121.68 30.87 122.13 30.87 122.27C30.87 122.42 30.92 122.64 30.98 122.77C31.05 122.9 31.18 123.07 31.28 123.13C31.38 123.2 31.56 123.25 31.69 123.25C31.84 123.25 31.98 123.2 32.12 123.07C32.23 122.97 32.45 122.63 32.61 122.31C32.76 121.98 33 121.51 33.14 121.26C33.27 121.01 33.51 120.64 33.67 120.44C33.82 120.25 34.04 119.91 34.14 119.69C34.26 119.46 34.34 119.19 34.34 119.04C34.35 118.88 34.28 118.65 34.18 118.45C34.09 118.27 33.9 118.02 33.75 117.88C33.6 117.75 33.45 117.64 33.42 117.64C33.38 117.64 33.31 117.62 33.27 117.61C33.22 117.59 33.08 117.63 32.96 117.7ZM34.75 119.94C34.65 119.97 34.51 120.04 34.46 120.09C34.41 120.13 34.28 120.31 34.19 120.49C34.09 120.66 33.92 121.06 33.81 121.37C33.68 121.75 33.61 122.07 33.61 122.32C33.61 122.53 33.64 122.79 33.67 122.89C33.71 123 33.82 123.14 33.92 123.21C34.04 123.29 34.16 123.32 34.3 123.3C34.4 123.27 34.54 123.2 34.6 123.14C34.66 123.08 34.76 122.91 34.82 122.76C34.88 122.62 35.02 122.18 35.12 121.78C35.23 121.39 35.33 120.82 35.36 120.53L35.4 119.99C35.13 119.89 35.02 119.86 35 119.86C34.97 119.86 34.86 119.9 34.75 119.94Z" />
		<path class="shp1" d="M87.79 122.06C87.62 122.08 87.46 122.21 86.97 122.75C86.63 123.12 85.86 124.02 85.26 124.76C84.65 125.49 83.94 126.39 83.67 126.75C83.4 127.11 83.11 127.54 83.02 127.71L82.85 128.01C83.48 129.26 84.08 130.37 84.59 131.29C85.1 132.2 85.68 133.2 85.89 133.51C86.09 133.81 86.37 134.16 86.51 134.29C86.65 134.41 87 134.62 87.29 134.75C87.58 134.89 88.44 135.27 89.22 135.6C89.99 135.93 90.97 136.32 91.4 136.46C91.83 136.61 92.55 136.89 93 137.08C93.45 137.28 94.24 137.62 94.76 137.82L95.71 138.2C96.17 137.81 96.77 137.22 97.34 136.63C97.92 136.05 98.6 135.32 98.86 135.03C99.12 134.73 99.38 134.39 99.44 134.27C99.54 134.07 99.53 134.03 99.2 132.98C99.02 132.39 98.71 131.47 98.52 130.93C98.32 130.39 97.91 129.21 97.6 128.31C97.29 127.42 96.82 126.12 96.55 125.44C96.28 124.76 95.92 123.92 95.75 123.58C95.58 123.24 95.37 122.9 95.28 122.83C95.19 122.75 94.89 122.65 94.57 122.58C94.26 122.52 92.79 122.38 91.3 122.27C89.82 122.16 88.46 122.07 88.3 122.05C88.14 122.04 87.91 122.04 87.79 122.06ZM97 122.31C96.88 122.36 96.77 122.47 96.75 122.55C96.72 122.65 96.81 122.93 97.03 123.42C97.21 123.81 97.43 124.34 97.53 124.59C97.62 124.84 98.11 126.22 98.62 127.66C99.12 129.1 99.74 130.86 99.99 131.58C100.23 132.3 100.52 133.12 100.64 133.41C100.75 133.7 100.97 134.12 101.13 134.36C101.29 134.59 101.76 135.15 102.17 135.6C102.59 136.05 103.11 136.64 103.33 136.92C103.73 137.42 103.74 137.43 104 137.41L104.26 137.39C104.25 136.23 104.2 135.55 104.14 135.14C104.07 134.73 103.94 133.93 103.83 133.38C103.72 132.82 103.58 132.17 103.51 131.94C103.45 131.71 103.29 131.22 103.16 130.86C103.04 130.5 102.83 129.94 102.71 129.62C102.58 129.3 102.24 128.55 101.94 127.96C101.65 127.36 101.18 126.53 100.91 126.09C100.64 125.66 100.22 125.05 99.99 124.72C99.76 124.4 99.32 123.84 99.01 123.49C98.7 123.13 98.27 122.7 98.06 122.52C97.75 122.28 97.62 122.21 97.44 122.21C97.31 122.21 97.12 122.26 97 122.31ZM67.44 125.28C66.73 125.52 65.4 125.98 64.48 126.3L62.82 126.88C61.92 128.7 61.53 129.55 61.37 129.95C61.21 130.34 60.97 131.03 60.82 131.48C60.68 131.93 60.46 132.75 60.34 133.31C60.22 133.87 60.07 134.72 60.01 135.21C59.96 135.69 59.91 136.5 59.91 137C59.91 137.5 59.93 138.05 59.95 138.21L59.99 138.5L65.56 141.34C66.28 140.71 66.65 140.44 66.84 140.32C67.03 140.21 67.67 139.76 68.27 139.32C68.86 138.88 69.68 138.3 70.09 138.02C70.51 137.75 70.95 137.46 71.09 137.38C71.22 137.3 71.38 137.14 71.43 137.03C71.49 136.93 71.59 136.41 71.66 135.88C71.73 135.35 71.89 133.96 72.02 132.79C72.14 131.62 72.26 130.34 72.29 129.95C72.31 129.55 72.31 129.09 72.29 128.92C72.25 128.65 72.17 128.52 71.71 127.97C71.42 127.62 71.01 127.13 70.79 126.88C70.57 126.63 70.1 126.12 69.74 125.75C69.38 125.38 69.01 125.02 68.91 124.95L68.74 124.83L67.44 125.28ZM85.19 136.07C84.88 136.37 83.92 137.4 83.06 138.36C82.19 139.32 81.28 140.33 81.04 140.61C80.79 140.89 80.54 141.23 80.47 141.38C80.37 141.58 80.34 141.78 80.34 142.33C80.34 142.7 80.38 143.47 80.44 144.02C80.49 144.58 80.56 145.48 80.6 146.02C80.64 146.55 80.71 147.6 80.77 148.33C80.82 149.07 80.91 150.04 80.97 150.49C81.02 150.94 81.09 151.41 81.12 151.53C81.15 151.66 81.25 151.81 81.33 151.87C81.41 151.93 81.69 152.04 81.94 152.12C82.19 152.2 82.7 152.4 83.08 152.56C83.46 152.72 84.14 152.98 84.6 153.14C85.06 153.3 85.83 153.59 86.33 153.8C86.82 154 87.49 154.28 87.81 154.42C88.37 154.67 88.41 154.68 88.6 154.59C88.7 154.54 89.03 154.3 89.31 154.08C89.6 153.85 90.44 153.06 91.18 152.32C91.92 151.58 92.93 150.51 93.43 149.94C93.93 149.37 94.51 148.71 94.72 148.47C94.93 148.23 95.32 147.76 95.57 147.42C95.83 147.08 96.09 146.68 96.16 146.54C96.26 146.34 96.29 146.15 96.28 145.79C96.27 145.52 96.19 144.78 96.1 144.15C96.01 143.53 95.86 142.41 95.77 141.67C95.68 140.94 95.57 140.17 95.51 139.97C95.45 139.74 95.36 139.56 95.24 139.46C95.14 139.38 94.82 139.2 94.54 139.06C94.25 138.92 93.07 138.43 91.92 137.96C90.78 137.5 89.15 136.83 88.3 136.48C87.46 136.13 86.61 135.77 86.41 135.69C86.21 135.6 85.98 135.53 85.9 135.53C85.8 135.53 85.56 135.71 85.19 136.07ZM120.96 138.31C120.96 139.13 120.97 139.46 120.98 139.03C120.99 138.6 120.99 137.92 120.98 137.52C120.97 137.13 120.96 137.48 120.96 138.31ZM71.53 138.54C71.22 138.73 70.42 139.26 69.73 139.73C69.05 140.2 68.05 140.9 67.52 141.29C66.98 141.67 66.44 142.08 66.32 142.2L66.1 142.42C66.15 145 66.21 146.46 66.27 147.32C66.33 148.18 66.41 148.99 66.44 149.12C66.48 149.27 66.63 149.47 66.91 149.74C67.14 149.95 68.04 150.63 68.92 151.25C69.8 151.86 71.22 152.86 72.08 153.46C72.95 154.06 73.9 154.7 74.2 154.89L74.74 155.23C75.46 154.83 76.09 154.45 76.59 154.12C77.09 153.8 78.02 153.19 78.66 152.77L79.82 151.99C79.82 151.16 79.76 150.16 79.69 149.25C79.62 148.33 79.47 146.58 79.36 145.36C79.26 144.14 79.13 142.91 79.09 142.62C79.04 142.31 78.95 142.02 78.87 141.91C78.78 141.78 78.12 141.38 76.72 140.61C75.61 140 74.12 139.21 73.42 138.85C72.72 138.5 72.13 138.21 72.11 138.21C72.1 138.21 71.83 138.36 71.53 138.54ZM0.09 143.37C0.09 143.82 0.1 144 0.11 143.76C0.13 143.53 0.13 143.16 0.11 142.95C0.1 142.73 0.09 142.92 0.09 143.37ZM96.99 147.43C96.9 147.59 96.7 147.89 96.53 148.11C96.37 148.32 95.96 148.84 95.62 149.25C95.28 149.66 94.78 150.25 94.51 150.56C94.24 150.86 93.68 151.48 93.27 151.93C92.85 152.38 91.79 153.48 90.89 154.38L89.27 156.01C89.25 157.98 89.27 158.64 89.3 158.74C89.33 158.84 89.39 158.92 89.46 158.92C89.52 158.92 89.77 158.86 90 158.78C90.23 158.7 90.78 158.48 91.21 158.29C91.64 158.09 92.4 157.71 92.9 157.44C93.41 157.16 94.1 156.75 94.44 156.53C94.78 156.3 95.44 155.81 95.91 155.43C96.37 155.06 97.29 154.21 97.94 153.55C98.8 152.67 99.32 152.08 99.87 151.34C100.28 150.78 100.73 150.15 100.88 149.93C101.02 149.72 101.28 149.26 101.45 148.92C101.62 148.58 101.86 148.14 101.99 147.94C102.11 147.74 102.2 147.53 102.19 147.46C102.18 147.37 102.09 147.31 101.94 147.27C101.82 147.24 100.69 147.2 99.43 147.18L97.15 147.15L96.99 147.43ZM21.31 147.81C21.13 147.84 20.93 147.88 20.87 147.9C20.76 147.94 20.75 148.23 20.75 152.65L20.75 157.35L21.9 157.35L22.09 153.19C23.81 153.12 24.55 153.07 24.83 153.03C25.12 152.99 25.39 152.93 25.44 152.89C25.49 152.84 25.52 152.73 25.52 152.63C25.52 152.53 25.47 152.37 25.4 152.28C25.34 152.19 25.2 152.09 25.09 152.05C24.98 152.01 24.26 151.96 23.45 151.95L21.99 151.93C22.06 149.67 22.08 149.01 22.08 149C22.09 148.99 22.77 148.96 23.59 148.92C24.42 148.88 25.2 148.83 25.32 148.79C25.45 148.76 25.59 148.7 25.63 148.65C25.67 148.6 25.72 148.44 25.73 148.29C25.74 148.13 25.71 147.98 25.66 147.93C25.61 147.88 25.35 147.82 25.07 147.8C24.8 147.78 23.91 147.76 23.1 147.76C22.3 147.76 21.49 147.79 21.31 147.81ZM63.65 150.21C63.63 150.28 63.69 150.47 63.79 150.67C63.88 150.86 64.25 151.37 64.61 151.8C64.97 152.23 65.57 152.89 65.93 153.27C66.3 153.66 66.82 154.18 67.09 154.44C67.36 154.7 67.76 155.07 67.97 155.25C68.19 155.44 68.63 155.78 68.95 156C69.27 156.22 69.82 156.58 70.16 156.8C70.5 157.02 71.25 157.45 71.82 157.76C72.4 158.07 73.04 158.4 73.26 158.48C73.47 158.57 73.76 158.66 73.9 158.68C74.12 158.72 74.15 158.7 74.22 158.54C74.26 158.44 74.3 158.01 74.3 157.54C74.3 156.79 74.29 156.71 74.14 156.45C74.01 156.22 73.7 155.98 72.41 155.09C71.55 154.5 70.24 153.62 69.51 153.12C68.77 152.63 67.82 151.96 67.39 151.64C66.96 151.32 66.48 151 66.34 150.91C66.2 150.83 65.87 150.68 65.62 150.58C65.37 150.49 64.92 150.34 64.63 150.26C64.33 150.17 64 150.1 63.89 150.1C63.76 150.1 63.68 150.14 63.65 150.21Z" />
		<path class="shp2" d="M42.45 155.38C42.2 155.48 41.87 155.65 41.7 155.76C41.54 155.87 41.29 156.09 41.14 156.25C40.97 156.42 40.75 156.78 40.57 157.15C40.41 157.49 40.25 157.95 40.21 158.16C40.17 158.38 40.12 158.97 40.1 159.47C40.07 160.02 40.09 160.64 40.13 161.01C40.17 161.35 40.27 161.88 40.34 162.18C40.42 162.49 40.56 162.91 40.66 163.13C40.79 163.43 40.96 163.64 41.35 164C41.71 164.33 41.96 164.51 42.19 164.58C42.4 164.65 42.72 164.69 43.04 164.69C43.44 164.69 43.66 164.65 43.96 164.53C44.17 164.45 44.49 164.26 44.67 164.11C44.85 163.96 45.11 163.69 45.24 163.52C45.38 163.34 45.58 163.02 45.69 162.8C45.8 162.59 45.9 162.28 45.92 162.12C45.96 161.88 45.94 161.81 45.84 161.74C45.77 161.69 45.62 161.66 45.51 161.66C45.39 161.66 45.22 161.71 45.12 161.77C45.03 161.84 44.81 162.12 44.64 162.41C44.47 162.7 44.21 163.06 44.07 163.22C43.94 163.38 43.71 163.56 43.56 163.63C43.42 163.69 43.19 163.75 43.06 163.75C42.92 163.75 42.73 163.71 42.63 163.66C42.54 163.61 42.34 163.44 42.19 163.28C42.03 163.11 41.84 162.79 41.71 162.48C41.59 162.19 41.45 161.76 41.4 161.53C41.35 161.29 41.29 160.75 41.27 160.32C41.24 159.72 41.25 159.38 41.34 158.85C41.41 158.47 41.51 157.99 41.57 157.77C41.63 157.56 41.8 157.22 41.94 157.03C42.08 156.83 42.28 156.61 42.39 156.52C42.5 156.44 42.7 156.33 42.83 156.27C42.96 156.22 43.18 156.17 43.3 156.17C43.49 156.17 43.6 156.24 43.89 156.52C44.11 156.73 44.38 157.1 44.6 157.48C44.82 157.87 45.03 158.15 45.17 158.25C45.33 158.36 45.44 158.39 45.59 158.36C45.69 158.34 45.82 158.29 45.87 158.24C45.91 158.2 45.95 158.06 45.95 157.94C45.95 157.81 45.9 157.58 45.84 157.41C45.79 157.25 45.63 156.93 45.49 156.69C45.35 156.46 45.14 156.18 45.02 156.06C44.9 155.95 44.63 155.75 44.41 155.62C44.2 155.49 43.82 155.34 43.58 155.29C43.34 155.24 43.09 155.19 43.03 155.19C42.96 155.2 42.71 155.28 42.45 155.38Z" />
		<path class="shp0" d="M109.03 178.18C108.93 178.23 108.76 178.43 108.64 178.61C108.52 178.79 108.38 179.07 108.32 179.23C108.27 179.39 108.18 179.71 108.12 179.95C108.07 180.18 107.92 180.59 107.79 180.86C107.66 181.13 107.5 181.43 107.43 181.52C107.32 181.66 107.23 181.68 106.79 181.72C106.51 181.75 105.89 181.77 105.4 181.77C104.92 181.77 104.27 181.81 103.97 181.85C103.66 181.89 103.35 181.96 103.26 182.01C103.18 182.06 103.12 182.15 103.12 182.2C103.12 182.26 103.17 182.38 103.23 182.47C103.29 182.57 103.57 182.81 103.84 183.02C104.1 183.22 104.6 183.57 104.94 183.8C105.29 184.03 105.69 184.34 105.85 184.48C106.01 184.63 106.19 184.86 106.26 184.99C106.33 185.13 106.38 185.28 106.38 185.34C106.38 185.39 106.2 185.96 105.99 186.61C105.71 187.46 105.6 187.88 105.6 188.13C105.6 188.32 105.63 188.52 105.66 188.57C105.71 188.65 105.8 188.66 106.1 188.63C106.31 188.6 106.61 188.52 106.77 188.44C106.93 188.36 107.4 188.07 107.82 187.8C108.23 187.53 108.68 187.25 108.83 187.19C108.97 187.12 109.18 187.07 109.3 187.07C109.42 187.07 109.62 187.12 109.76 187.19C109.89 187.26 110.18 187.44 110.39 187.6C110.61 187.76 111.01 188.04 111.28 188.22C111.54 188.4 111.91 188.63 112.09 188.72C112.27 188.81 112.51 188.9 112.63 188.92C112.75 188.94 112.9 188.93 112.97 188.9C113.07 188.85 113.1 188.77 113.1 188.55C113.1 188.38 112.9 187.68 112.58 186.72C112.29 185.87 112.06 185.14 112.06 185.09C112.06 185.05 112.44 184.69 112.89 184.31C113.35 183.93 114.01 183.32 114.36 182.97C114.72 182.62 115 182.29 114.98 182.24C114.97 182.19 114.85 182.11 114.7 182.06C114.56 182.01 114.19 181.92 113.89 181.87C113.58 181.82 112.84 181.75 112.24 181.73C111.21 181.68 111.15 181.67 110.98 181.52C110.89 181.43 110.71 181.15 110.59 180.89C110.48 180.64 110.3 180.14 110.2 179.78C110.1 179.43 109.96 179 109.89 178.84C109.82 178.68 109.7 178.46 109.62 178.35C109.54 178.24 109.41 178.13 109.33 178.11C109.26 178.09 109.12 178.12 109.03 178.18ZM10.96 178.3C10.87 178.31 10.77 178.37 10.73 178.43C10.68 178.49 10.48 179.03 10.28 179.62C10.07 180.21 9.81 180.89 9.69 181.12C9.55 181.41 9.42 181.58 9.29 181.64C9.15 181.7 8.75 181.72 7.51 181.7L5.92 181.68C5.68 182.18 5.6 182.43 5.58 182.56L5.54 182.79C6.93 183.75 7.55 184.24 7.82 184.49L8.3 184.94C8.24 185.5 8.06 186.17 7.87 186.79C7.67 187.41 7.51 188.02 7.51 188.15C7.51 188.31 7.56 188.43 7.7 188.57C7.81 188.68 7.95 188.77 8.01 188.77C8.07 188.77 8.3 188.68 8.52 188.58C8.73 188.48 9.26 188.16 9.69 187.87C10.12 187.59 10.61 187.27 10.77 187.18C10.93 187.08 11.13 187 11.21 187C11.29 187 11.48 187.07 11.63 187.14C11.79 187.22 12.35 187.58 12.89 187.95C13.43 188.31 13.97 188.65 14.1 188.7C14.31 188.78 14.35 188.78 14.61 188.63C14.77 188.54 14.93 188.41 14.96 188.34C15 188.27 15.01 188.09 14.99 187.95C14.97 187.81 14.8 187.28 14.62 186.79C14.44 186.3 14.24 185.7 14.18 185.47L14.06 185.04C14.42 184.68 14.83 184.34 15.21 184.05C15.58 183.75 16.08 183.37 16.3 183.18C16.53 183 16.77 182.77 16.84 182.66C16.94 182.5 16.95 182.42 16.9 182.27C16.87 182.16 16.73 181.99 16.6 181.89L16.35 181.71L12.89 181.71C12.24 179.81 11.98 179.11 11.9 178.94C11.81 178.76 11.71 178.56 11.66 178.49C11.62 178.43 11.48 178.36 11.36 178.33C11.23 178.3 11.05 178.29 10.96 178.3ZM34.54 183.89C34.46 183.93 34.32 184.08 34.23 184.23C34.14 184.37 33.95 184.83 33.79 185.24C33.64 185.65 33.41 186.34 33.28 186.77L33.04 187.56C30.73 187.62 29.85 187.66 29.6 187.68C29.29 187.71 29.11 187.76 29.03 187.84C28.97 187.9 28.9 188.07 28.88 188.21C28.84 188.44 28.86 188.49 29.02 188.66C29.12 188.76 29.66 189.18 30.22 189.58C30.77 189.99 31.33 190.42 31.44 190.54C31.6 190.7 31.66 190.82 31.66 190.99C31.66 191.11 31.62 191.41 31.56 191.64C31.51 191.87 31.33 192.52 31.17 193.08C31 193.63 30.87 194.2 30.87 194.33C30.87 194.51 30.9 194.59 30.98 194.61C31.05 194.63 31.19 194.65 31.29 194.66C31.41 194.66 31.72 194.55 32.04 194.39C32.35 194.23 33.04 193.81 33.58 193.44L34.56 192.77C35.37 193.27 36 193.66 36.48 193.96C36.97 194.25 37.58 194.61 37.84 194.75C38.3 194.99 38.32 195 38.43 194.89C38.5 194.81 38.54 194.67 38.53 194.49C38.52 194.34 38.27 193.46 37.96 192.54L37.4 190.86C37.68 190.63 38.23 190.22 38.8 189.81C39.37 189.4 40.01 188.91 40.21 188.72C40.5 188.46 40.6 188.33 40.6 188.19C40.6 188.1 40.55 187.95 40.48 187.86C40.38 187.74 40.27 187.71 39.78 187.65C39.46 187.62 38.53 187.59 37.72 187.59L36.25 187.59C35.68 185.89 35.39 185.11 35.24 184.75C35.09 184.39 34.9 184.03 34.83 183.95C34.71 183.82 34.67 183.82 34.54 183.89ZM85.58 184.18C85.48 184.28 85.26 184.65 85.09 185.01C84.93 185.37 84.67 186.02 84.52 186.45C84.34 186.97 84.2 187.29 84.08 187.41C83.98 187.51 83.79 187.63 83.67 187.67C83.51 187.72 83.08 187.72 82.3 187.69C81.5 187.66 81.03 187.67 80.73 187.72C80.5 187.77 80.19 187.85 80.05 187.91L79.8 188.01C81 189.23 81.64 189.8 81.99 190.07C82.49 190.45 82.65 190.61 82.7 190.79C82.74 190.92 82.76 191.2 82.73 191.46C82.71 191.7 82.57 192.38 82.43 192.96C82.26 193.63 82.17 194.17 82.17 194.43C82.17 194.66 82.18 194.88 82.2 194.94C82.23 195.02 82.32 194.99 82.71 194.8C82.97 194.67 83.4 194.42 83.67 194.26C83.94 194.09 84.41 193.75 84.71 193.5C85.02 193.26 85.36 193.02 85.48 192.97C85.6 192.92 85.76 192.88 85.84 192.88C85.92 192.88 86.13 192.96 86.31 193.06C86.49 193.16 86.95 193.48 87.32 193.76C87.7 194.04 88.16 194.34 88.34 194.43C88.51 194.52 88.82 194.65 89.02 194.72C89.22 194.79 89.45 194.84 89.53 194.84C89.61 194.84 89.69 194.8 89.71 194.74C89.72 194.69 89.74 194.56 89.74 194.46C89.74 194.37 89.68 194.19 89.61 194.07C89.54 193.96 89.4 193.56 89.31 193.19C89.22 192.82 89.04 192.24 88.91 191.9C88.73 191.4 88.69 191.23 88.73 191.02C88.76 190.82 88.85 190.68 89.11 190.43C89.3 190.25 89.73 189.93 90.07 189.72C90.41 189.5 90.91 189.17 91.19 188.97C91.47 188.77 91.78 188.49 91.86 188.36C91.95 188.22 92.01 188.07 91.99 188.01C91.97 187.96 91.85 187.89 91.71 187.85C91.58 187.82 91.07 187.76 90.59 187.72C90.1 187.69 89.38 187.66 88.99 187.65C88.59 187.65 88.15 187.62 88.01 187.58C87.87 187.54 87.68 187.45 87.6 187.37C87.52 187.29 87.39 187.08 87.31 186.9C87.24 186.72 87.01 186.12 86.82 185.56C86.62 185.01 86.43 184.48 86.38 184.39C86.33 184.3 86.25 184.17 86.19 184.11C86.13 184.05 86.01 184 85.92 184C85.82 184 85.68 184.07 85.58 184.18ZM59.92 189.3C59.85 189.39 59.58 190.01 59.33 190.69C59.07 191.37 58.77 192.12 58.66 192.36C58.49 192.69 58.4 192.79 58.25 192.83C58.14 192.86 57.51 192.91 56.85 192.95C56.18 192.99 55.36 193.04 55.02 193.08C54.67 193.11 54.36 193.17 54.31 193.22C54.26 193.27 54.24 193.37 54.26 193.45C54.28 193.53 54.53 193.8 54.81 194.04C55.09 194.28 55.77 194.83 56.31 195.26C56.86 195.7 57.32 196.09 57.34 196.15C57.35 196.2 57.32 196.39 57.27 196.57C57.22 196.75 57.04 197.31 56.86 197.81C56.68 198.31 56.5 198.89 56.47 199.09C56.41 199.43 56.41 199.45 56.59 199.62C56.73 199.76 56.85 199.8 57.04 199.8C57.19 199.8 57.45 199.73 57.64 199.63C57.83 199.54 58.24 199.3 58.54 199.1C58.85 198.9 59.27 198.65 59.49 198.54C59.79 198.39 59.97 198.34 60.24 198.34C60.51 198.34 60.68 198.38 60.92 198.52C61.1 198.62 61.53 198.92 61.87 199.19C62.21 199.47 62.63 199.76 62.8 199.85C62.97 199.93 63.23 200 63.39 200C63.57 200 63.7 199.97 63.76 199.9C63.83 199.82 63.86 199.68 63.84 199.47C63.84 199.29 63.78 198.95 63.73 198.71C63.67 198.47 63.49 197.87 63.33 197.39C63.1 196.72 63.04 196.46 63.08 196.31C63.1 196.2 63.24 196 63.39 195.86C63.54 195.73 63.97 195.4 64.35 195.14C64.73 194.88 65.23 194.51 65.46 194.31C65.69 194.12 65.98 193.86 66.1 193.73C66.21 193.6 66.31 193.45 66.31 193.39C66.31 193.32 66.24 193.24 66.16 193.2C66.07 193.15 65.44 193.1 64.51 193.07C63.69 193.04 62.81 192.98 62.56 192.95C62.3 192.91 62.03 192.82 61.94 192.76C61.85 192.69 61.72 192.51 61.66 192.35C61.6 192.19 61.43 191.64 61.27 191.12C61.12 190.6 60.92 190.01 60.83 189.81C60.73 189.61 60.56 189.38 60.46 189.3C60.36 189.22 60.23 189.15 60.17 189.16C60.11 189.16 60 189.22 59.92 189.3Z" />
	</g>
</svg>