<svg xmlns="http://www.w3.org/2000/svg" viewBox="0 0 500 500"><defs><style>.cls-1{fill:#fff;}.cls-2{fill:#e31837;}.cls-3{fill:#06357a;}</style></defs><g id="Layer_2" data-name="Layer 2"><g id="Layer_1-2" data-name="Layer 1"><circle id="circle3" class="cls-1" cx="250" cy="250" r="250"/><path id="path5" class="cls-2" d="M344.26,344.26H155.74V155.74H344.26ZM250,172.13A77.87,77.87,0,1,0,327.87,250,77.87,77.87,0,0,0,250,172.13Z"/><polygon id="polygon7" class="cls-3" points="311.48 229.51 270.49 229.51 270.49 188.52 229.51 188.52 229.51 229.51 188.52 229.51 188.52 270.49 229.51 270.49 229.51 311.48 270.49 311.48 270.49 270.49 311.48 270.49 311.48 229.51"/><path id="path9" class="cls-3" d="M335,350.77v-5.24h1.79l.66,3.1h0l.68-3.1h1.78v5.24h-1.21l.13-4.11h0l-.9,4.11H337l-.87-4.11h0l.12,4.11Z"/><path id="path11" class="cls-3" d="M342,350.77h-1.27v-5.24h1.86c1,0,1.55.4,1.55,1.45a1.12,1.12,0,0,1-.66,1.19v0a.71.71,0,0,1,.62.67c0,.42,0,1.33.12,1.66a.38.38,0,0,0,.12.18v.07H343a1,1,0,0,1-.08-.3c0-.46,0-.89,0-1.21s-.14-.53-.44-.56H342v2.07Zm0-3h.44c.36,0,.45-.33.45-.65,0-.63-.26-.65-.89-.64Z"/><path id="path13" class="cls-3" d="M155.73,147.54V114.76h8.49c2.75,0,6.1.07,8.65,1.54h0c3.06,1.8,3.54,5.09,3.53,8.19h0V138.8c0,3.27-1.06,5.76-3.35,7.19h0a12.3,12.3,0,0,1-6.86,1.55H155.73Zm8.86-6.34c1.71,0,2.59-.37,3.07-1h0a5.35,5.35,0,0,0,.64-3.17h0c0-.48,0-1,0-1.58h0V124.92c0-1.87-.35-2.74-1-3.19h0c-.62-.44-1.73-.55-3.41-.59h0v20c.26,0,.5,0,.73,0Z"/><path id="path15" class="cls-3" d="M178.54,147.54V114.76h17.88v7h-9.75v5.34h9.45v7h-9.45v6.38h10.26v7Z"/><path id="path17" class="cls-3" d="M199,147.54V114.76h9.26c2.93,0,7.21.22,9.45,2.75h0c1.83,2.06,2.17,4.56,2.17,7.2h0c0,3.5-.81,7.56-4.41,9.23h0c-2.64,1.29-5.62.95-8.34,1.05h0v12.55Zm8.13-18.92c1.35,0,2.76,0,3.76-.73h0a4.65,4.65,0,0,0,.86-3h0c0-1.24-.18-3-1.23-3.47h0a9.84,9.84,0,0,0-2.86-.24h-.53v7.49Z"/><path id="path19" class="cls-3" d="M232,148.31c-3.86,0-6.54-1-8.24-2.89h0c-1.69-1.94-2.35-4.77-2.36-8.43h0v-13.1a9.65,9.65,0,0,1,2.77-7.34h0C226,114.86,228.63,114,232,114h0c3.36,0,6,.88,7.77,2.57h0c1.79,1.7,2.7,4.2,2.7,7.34h0V137c0,3.66-.64,6.49-2.3,8.43h0c-1.66,1.93-4.3,2.89-8.16,2.89h0Zm-2-26.69a7.06,7.06,0,0,0-.43,2.79h0v13.22a7.82,7.82,0,0,0,.44,2.88h0a2,2,0,0,0,2,1.43h0a1.94,1.94,0,0,0,2-1.42h0a8.73,8.73,0,0,0,.37-2.89h0V124.41a7.73,7.73,0,0,0-.37-2.8h0a1.93,1.93,0,0,0-2-1.25h0a2,2,0,0,0-2,1.26Z"/><path id="path21" class="cls-3" d="M258,147.54l-.07-.19a7.16,7.16,0,0,1-.45-1.93h0c0-1.07-.05-2.12-.05-3.11h0v-1h0a31.61,31.61,0,0,0-.12-3.38h0c-.24-2-.73-3-2.29-3.13h-2.2v12.71h-8.13V114.76H256c3.13,0,5.53.62,7.16,2.12h0c1.62,1.49,2.41,3.81,2.41,7.05h0c0,3.26-.77,5.79-3.59,7.32h0a4.66,4.66,0,0,1,3.33,4.25h0c.21,2.58.26,8.1.67,10.12h0a2.44,2.44,0,0,0,.65,1h0l.1.09v.85Zm-2.89-19.09a2,2,0,0,0,1.92-1.1h0a5.67,5.67,0,0,0,.5-2.6h0c0-1.69-.32-2.56-.9-3h0a4.88,4.88,0,0,0-3-.61h-.77v7.33Z"/><path id="path23" class="cls-3" d="M272.11,147.54V121.77h-5.93v-7h20.16v7h-6.09v25.77Z"/><path id="path25" class="cls-3" d="M288.72,147.54V114.76h8.14v32.78Z"/><path id="path27" class="cls-3" d="M306,147.54l-7.13-32.78h8.16l3.67,21.41,3.66-21.41h8.16l-7.16,32.78Z"/><path id="path29" class="cls-3" d="M333.83,148.31c-3.87,0-6.55-1-8.24-2.89h0c-1.69-1.94-2.36-4.77-2.36-8.43h0v-13.1a9.64,9.64,0,0,1,2.77-7.34h0c1.82-1.69,4.47-2.57,7.83-2.57h0c3.35,0,6,.88,7.76,2.57h0c1.79,1.7,2.7,4.2,2.7,7.34h0V137c0,3.66-.63,6.49-2.29,8.42h0c-1.66,1.94-4.3,2.9-8.16,2.9h0Zm-2-26.7a7.14,7.14,0,0,0-.42,2.8h0v13.22a8,8,0,0,0,.43,2.88h0a2.05,2.05,0,0,0,2,1.43h0a1.93,1.93,0,0,0,1.95-1.42h0a8.48,8.48,0,0,0,.38-2.89h0V124.41a7.51,7.51,0,0,0-.38-2.8h0a1.93,1.93,0,0,0-2-1.25h0a2,2,0,0,0-2,1.25Z"/><path id="path31" class="cls-3" d="M158.18,383.38c-1.62-1.85-2.31-4.51-2.31-7.87h0V362.15c0-3.57.82-6.25,2.58-8h0c1.76-1.79,4.41-2.62,7.94-2.62h0c3.29,0,6,.7,7.83,2.28h0c1.87,1.59,2.87,4.05,2.87,7.42h0v3h-8.21v-2.37a5.87,5.87,0,0,0-.64-3h0a1.72,1.72,0,0,0-1.51-.92h-.11a2.27,2.27,0,0,0-2,.79h0a4,4,0,0,0-.5,2.3h0l0,16.1c.05,1.75.57,2.57,2.44,2.61h0a2.08,2.08,0,0,0,2.12-1.41h0a8.34,8.34,0,0,0,.41-3h0V372.1h8.21v4.28a9.33,9.33,0,0,1-2.67,7.06h0c-1.85,1.74-4.69,2.73-8.63,2.73h0c-3.56,0-6.11-.95-7.74-2.79Z"/><path id="path33" class="cls-3" d="M193.86,385.39l-.07-.19a7.39,7.39,0,0,1-.45-1.95h0c-.05-1.09-.05-2.14-.05-3.14h0v-1h0a32.1,32.1,0,0,0-.12-3.41h0c-.24-2-.74-3-2.31-3.17h-2.23v12.84h-8.21V352.28h11.43c3.16,0,5.58.63,7.23,2.14h0c1.64,1.51,2.43,3.85,2.43,7.13h0c0,3.29-.77,5.84-3.63,7.39h0a4.68,4.68,0,0,1,3.37,4.29h0c.22,2.61.27,8.19.68,10.22h0a2.63,2.63,0,0,0,.65,1h0l.1.08v.86Zm-5.23-19.28h2.31a2,2,0,0,0,1.94-1.11h0a5.68,5.68,0,0,0,.5-2.63h0c0-1.71-.32-2.59-.91-3.06h0a5,5,0,0,0-3.07-.61h-.77v7.4Z"/><path id="path35" class="cls-3" d="M214.86,386.17c-3.28,0-5.91-.78-7.74-2.45h0c-1.82-1.68-2.79-4.21-2.79-7.6h0V352.28h8.22v24.84c0,1.52.35,2.58,2.35,2.61h0c1.78,0,2.29-1.5,2.32-2.83h0V352.28h8.21v23.84a10.34,10.34,0,0,1-2.29,7.14h0c-1.66,1.82-4.32,2.91-8.27,2.91h0Z"/><path id="path37" class="cls-3" d="M227.92,385.39v-6.17l9.46-19.86h-8.77v-7.08h17.85v6.43l-9.29,19.59h9.72v7.09Z"/><path id="path39" class="cls-3" d="M269.34,385.39l-1.08-6.34h-5.49l-.91,6.34h-8.29l7.24-33.11h9.66l7.2,33.11Zm-5.66-12.64h3.75l-1.84-12.61-1.91,12.61Z"/><path id="path41" class="cls-3" d="M279.15,385.39v-6.17l9.46-19.86h-8.77v-7.08h17.84v6.43l-9.29,19.59h9.73v7.09Z"/><path id="path43" class="cls-3" d="M311.46,386.17c-3.27,0-5.91-.78-7.74-2.45h0c-1.82-1.68-2.79-4.21-2.79-7.6h0V352.28h8.22v24.84c.05,1.52.35,2.58,2.35,2.61h0c1.78,0,2.29-1.5,2.32-2.83h0V352.28H322v23.84a10.34,10.34,0,0,1-2.29,7.14h0c-1.66,1.82-4.32,2.91-8.27,2.91h0Z"/><path id="path45" class="cls-3" d="M326.21,385.39V352.28h8.21v26h9.33v7.09Z"/><path id="path47" class="cls-3" d="M492.68,249.9c0,133.55-108.26,241.81-241.81,241.81S9.07,383.45,9.07,249.9,117.33,8.1,250.87,8.1,492.68,116.36,492.68,249.9ZM250.87,65.48C149,65.48,66.45,148.05,66.45,249.9S149,434.33,250.87,434.33A184.43,184.43,0,0,0,435.3,249.9C435.3,148.05,352.73,65.48,250.87,65.48Z"/><path id="path65" class="cls-3" d="M335.06,350.75v-5.2h1.72l.63,3.07h0l.65-3.07h1.71v5.2h-1.17l.13-4.08h0l-.86,4.08H337l-.84-4.08h0l.11,4.08Z"/><path id="path67" class="cls-3" d="M342,350.75h-1.22v-5.2h1.78c1,0,1.5.4,1.5,1.43a1.12,1.12,0,0,1-.65,1.19h0a.73.73,0,0,1,.61.67c0,.42,0,1.32.11,1.65a.54.54,0,0,0,.11.18v.07h-1.33a1.63,1.63,0,0,1-.07-.3c0-.46,0-.89,0-1.21s-.14-.52-.42-.54H342Zm0-3h.41c.36,0,.44-.33.44-.65,0-.61-.26-.64-.85-.63v1.28Z"/><path id="path69" class="cls-1" d="M91,413.4l17.69-20.83,8.61,7.31-7.29,15,.07.06,13.71-9.53,8.54,7.25-17.69,20.83-5.83-5,14.49-15.8-.07-.06-18.17,12.67-4.55-3.86,9.67-19.89-.07-.06-13.31,16.8Z"/><path id="path71" class="cls-1" d="M154.57,456.74,165,431.49l17,7-2.09,5.05-9.55-3.95-1.92,4.65,9.26,3.83-2.09,5.05-9.26-3.83-2.25,5.45,10.06,4.16L172,464Z"/><path id="path73" class="cls-1" d="M228.85,457.38h.09l4.46-7.9,8,.81-8.45,12.91,6,14.31-8-.81-3-8.51h-.09l-5.35,7.67-7.62-.77,8.94-12.8L218,447.94l7.93.8Z"/><path id="path75" class="cls-1" d="M283.62,475l-4.48-26.95,7.91-1.32,4.48,27Z"/><path id="path77" class="cls-1" d="M340.63,439.16l-.73-1.59c-1-2.11-2.44-2.77-3.81-2.13-2.28,1-2.36,2.26-1.61,3.88l5.65,12.28c.64,1.39,1.73,1.89,3.63,1,2.47-1.15,1.73-3.29,1-4.82l-1.05-2.24,7.27-3.38,1.42,3c2,4.27.29,8.66-7.14,12.11-6.7,3.1-10.62,1.47-13-3.59l-4.72-10.18c-2.5-5.39-.57-9.34,6.08-12.42,6.2-2.88,10.9-2.49,13.25,2.57l1,2.09Z"/><path id="path79" class="cls-1" d="M403.84,405.89c4.1,4.59,4.24,8.78-1.81,14.18s-10.29,4.89-14.39.3l-7.41-8.28c-3.49-3.92-2.52-8.7,2.71-13.37s10-5,13.49-1.11Zm-13.09-2.61c-1.12-1.25-2.59-2.63-4.56-.86s-.8,3.4.31,4.65l7.48,8.37c1,1.16,2.84,2.69,4.77,1s.52-3.59-.52-4.76Z"/><path class="cls-1" d="M454.7,196.49H440.61l11.4,8.27-4.35,13.4,11.4-8.28,11.4,8.28-4.36-13.4,11.4-8.29H463.41l-4.36-13.4Z"/><path class="cls-1" d="M427.3,131.12,413.22,131l11.32,8.38-4.47,13.36,11.47-8.19,11.33,8.39-4.24-13.44,11.47-8.18L436,131.19l-4.23-13.43Z"/><path class="cls-1" d="M379.5,78.15H365.42l11.4,8.28-4.36,13.4,11.4-8.28,11.4,8.28-4.35-13.4,11.39-8.28H388.21l-4.35-13.4Z"/><path class="cls-1" d="M317.28,43.36H303.19l11.4,8.27-4.35,13.41,11.4-8.29L333,65l-4.36-13.4,11.4-8.29H326L321.63,30Z"/><path class="cls-1" d="M246.83,30.47H232.74l11.41,8.27L239.8,52.16l11.4-8.29,11.4,8.27-4.36-13.4,11.39-8.29H255.54l-4.37-13.39Z"/><path class="cls-1" d="M176.4,43.3H162.31l11.39,8.29L169.33,65l11.41-8.27L192.13,65l-4.34-13.4,11.4-8.27-14.08,0-4.35-13.4Z"/><path class="cls-1" d="M113.91,78.12H99.82l11.4,8.28-4.35,13.4,11.39-8.28,11.41,8.28-4.36-13.4,11.39-8.28H122.62l-4.36-13.4Z"/><path class="cls-1" d="M65.86,131.37l-14.09,0,11.43,8.25-4.31,13.41,11.37-8.32L81.69,153l-4.4-13.39,11.37-8.32-14.09.05L70.17,118Z"/><path class="cls-1" d="M38.46,196.52l-14.09,0,11.41,8.26-4.32,13.41,11.38-8.31,11.41,8.27-4.37-13.4,11.38-8.3-14.09,0-4.38-13.39Z"/></g></g></svg>